<svg width="16" height="9" viewBox="0 0 16 9" fill="none" xmlns="http://www.w3.org/2000/svg">
<path d="M5.57751 7.52151L0.332302 2.40242C0.119464 2.19346 -6.16679e-08 1.9108 -4.87889e-08 1.61616C-3.59098e-08 1.32152 0.119464 1.03885 0.332302 0.829895C0.438535 0.725362 0.564924 0.642393 0.704178 0.585772C0.843433 0.529151 0.992796 0.5 1.14365 0.5C1.29451 0.5 1.44387 0.529151 1.58313 0.585772C1.72238 0.642393 1.84877 0.725362 1.955 0.829895L7.18878 5.96013C7.29501 6.06466 7.4214 6.14763 7.56066 6.20425C7.69991 6.26087 7.84927 6.29003 8.00013 6.29003C8.15099 6.29003 8.30035 6.26087 8.4396 6.20425C8.57886 6.14763 8.70525 6.06466 8.81148 5.96013L14.0453 0.829895C14.2589 0.619886 14.5493 0.501317 14.8526 0.500271C15.1558 0.499225 15.4471 0.61579 15.6622 0.82432C15.8774 1.03285 15.9989 1.31626 16 1.61222C16.0011 1.90817 15.8816 2.19242 15.668 2.40242L10.4228 7.52151C9.77996 8.14807 8.90862 8.5 8.00013 8.5C7.09164 8.5 6.2203 8.14807 5.57751 7.52151Z" fill="#8F8F91"/>
</svg>
