<svg width="15" height="15" viewBox="0 0 15 15" fill="none" xmlns="http://www.w3.org/2000/svg">
<path d="M3.67188 3.25464C3.67188 3.25464 2.98083 11.202 10.1209 12.5281" stroke="black" stroke-width="2.67932" stroke-linecap="round" stroke-linejoin="round"/>
<path d="M6.97133 3.17278C7.38239 5.23698 5.35416 6.00454 4.12322 5.77593C2.89228 5.54732 2.08833 4.31783 2.32752 3.03001C2.56672 1.74218 3.73962 1.02708 4.98943 1.11228C6.0223 1.18244 6.58471 1.22961 6.97133 3.17278Z" fill="black"/>
<path d="M11.8508 10.2308C13.2317 11.4904 12.0969 13.1135 11.0483 13.6002C10.799 13.7161 10.5293 13.7816 10.2546 13.7932C9.97995 13.8048 9.70569 13.7621 9.44751 13.6677C9.18933 13.5733 8.95228 13.4289 8.74991 13.2428C8.54754 13.0568 8.38381 12.8326 8.26808 12.5833C7.78101 11.5347 8.29674 10.4027 9.28513 9.80285C10.1022 9.30674 10.5514 9.04328 11.8508 10.2308Z" fill="black"/>
</svg>
