<svg width="15" height="14" viewBox="0 0 15 14" fill="none" xmlns="http://www.w3.org/2000/svg">
<g clip-path="url(#clip0_891_12079)">
<path d="M13.8685 3.02832H1.13186C0.914492 3.02832 0.738281 3.20453 0.738281 3.4219V12.2363C0.738281 12.4537 0.914492 12.6299 1.13186 12.6299H13.8685C14.0859 12.6299 14.2621 12.4537 14.2621 12.2363V3.4219C14.2621 3.20453 14.0859 3.02832 13.8685 3.02832Z" stroke="white" stroke-width="1.3" stroke-linecap="round" stroke-linejoin="round"/>
<path d="M11.4383 0.693604H6.18932C6.01735 0.693604 5.87793 0.83302 5.87793 1.005V2.71697C5.87793 2.88895 6.01735 3.02837 6.18932 3.02837H11.4383C11.6103 3.02837 11.7497 2.88895 11.7497 2.71697V1.005C11.7497 0.83302 11.6103 0.693604 11.4383 0.693604Z" stroke="white" stroke-width="1.25" stroke-linecap="round" stroke-linejoin="round"/>
<path d="M3.22503 0.752563H3.8551C3.98974 0.752563 4.11886 0.806049 4.21407 0.901255C4.30928 0.99646 4.36276 1.12559 4.36276 1.26023V2.51447C4.36276 2.55402 4.34705 2.59195 4.31909 2.61991C4.29113 2.64787 4.2532 2.66358 4.21365 2.66358H2.86786C2.82831 2.66358 2.79039 2.64787 2.76242 2.61991C2.73446 2.59195 2.71875 2.55402 2.71875 2.51447V1.26023C2.71875 1.12583 2.77204 0.99691 2.86695 0.901744C2.96186 0.806579 3.09063 0.752931 3.22503 0.752563Z" fill="white"/>
<path d="M7.50019 10.3683C8.90245 10.3683 10.0392 9.23155 10.0392 7.82929C10.0392 6.42704 8.90245 5.29028 7.50019 5.29028C6.09794 5.29028 4.96118 6.42704 4.96118 7.82929C4.96118 9.23155 6.09794 10.3683 7.50019 10.3683Z" stroke="white" stroke-width="1.1842" stroke-linecap="round" stroke-linejoin="round"/>
</g>
<defs>
<clipPath id="clip0_891_12079">
<rect width="15" height="13.3681" fill="white"/>
</clipPath>
</defs>
</svg>
