<svg width="12" height="9" viewBox="0 0 12 9" fill="none" xmlns="http://www.w3.org/2000/svg">
<path d="M10.0151 0.27098C10.2 0.0977513 10.4447 0.00269624 10.6981 0.00568357C10.9514 0.0086709 11.1938 0.109469 11.3746 0.287009C11.5554 0.464549 11.6605 0.705089 11.6681 0.958348C11.6756 1.21161 11.585 1.45798 11.4151 1.64598L6.1911 8.17898C6.10126 8.27571 5.99283 8.35334 5.87231 8.40721C5.75178 8.46108 5.62163 8.4901 5.48963 8.49253C5.35763 8.49496 5.2265 8.47074 5.10408 8.42134C4.98165 8.37193 4.87044 8.29834 4.77711 8.20498L1.31511 4.73698C1.21292 4.6487 1.13004 4.54029 1.07165 4.41852C1.01326 4.29676 0.980606 4.16426 0.975736 4.02931C0.970867 3.89436 0.993884 3.75985 1.04335 3.63419C1.09281 3.50854 1.16766 3.39444 1.26322 3.29902C1.35878 3.2036 1.47299 3.12892 1.59871 3.07963C1.72444 3.03035 1.85898 3.00753 1.99392 3.01259C2.12887 3.01765 2.26132 3.0505 2.383 3.10906C2.50468 3.16763 2.61297 3.25067 2.7011 3.35298L5.4431 6.09298L9.9901 0.298979C9.99823 0.288838 10.0069 0.279156 10.0161 0.26998L10.0151 0.27098Z" fill="#B7B7B7"/>
</svg>
