<svg width="23" height="19" viewBox="0 0 23 19" fill="none" xmlns="http://www.w3.org/2000/svg">
<path d="M19.1064 0.588402C19.4961 0.209837 20.0184 -0.00133354 20.5617 6.33736e-06C21.1049 0.00134621 21.6261 0.21509 22.0139 0.595573C22.4017 0.976056 22.6254 1.49311 22.637 2.03626C22.6487 2.57941 22.4475 3.1056 22.0764 3.5024L11.0034 17.3514C10.8131 17.557 10.5831 17.722 10.3274 17.8366C10.0717 17.9512 9.79552 18.0129 9.51537 18.0181C9.23522 18.0234 8.9569 17.972 8.6971 17.867C8.43729 17.7621 8.20136 17.6057 8.00345 17.4074L0.664447 10.0624C0.459549 9.87201 0.295136 9.64226 0.181033 9.38689C0.0669297 9.13152 0.0054778 8.85577 0.000349794 8.57611C-0.00477821 8.29645 0.0465229 8.01863 0.151187 7.75925C0.255852 7.49987 0.411731 7.26425 0.609511 7.06647C0.807291 6.86869 1.04291 6.71281 1.30229 6.60814C1.56168 6.50348 1.8395 6.45218 2.11915 6.45731C2.39881 6.46243 2.67456 6.52389 2.92993 6.63799C3.1853 6.75209 3.41505 6.9165 3.60545 7.1214L9.41645 12.9284L19.0544 0.651403C19.0716 0.630068 19.09 0.609704 19.1094 0.590403L19.1064 0.588402Z" fill="#2CB7A4"/>
</svg>
