<svg width="20" height="16" viewBox="0 0 20 16" fill="none" xmlns="http://www.w3.org/2000/svg">
<path d="M16.8803 0.519847C17.2246 0.185388 17.686 -0.00117817 18.166 5.59899e-06C18.646 0.00118937 19.1065 0.19003 19.4491 0.526182C19.7917 0.862335 19.9893 1.31914 19.9996 1.79901C20.0099 2.27888 19.8321 2.74376 19.5043 3.09433L9.72142 15.3298C9.55323 15.5114 9.35009 15.6572 9.12417 15.7584C8.89826 15.8597 8.65423 15.9142 8.40672 15.9188C8.15921 15.9235 7.91332 15.878 7.68379 15.7853C7.45426 15.6926 7.24581 15.5545 7.07096 15.3792L0.587032 8.89002C0.406007 8.72181 0.26075 8.51883 0.159941 8.29321C0.0591316 8.06759 0.00483957 7.82397 0.000309039 7.5769C-0.00422149 7.32982 0.0411025 7.08437 0.133572 6.85521C0.226042 6.62605 0.36376 6.41788 0.538496 6.24315C0.713233 6.06841 0.921401 5.93069 1.15056 5.83822C1.37972 5.74575 1.62517 5.70043 1.87225 5.70496C2.11932 5.70949 2.36295 5.76378 2.58856 5.86459C2.81418 5.9654 3.01716 6.11066 3.18537 6.29168L8.31933 11.4221L16.8344 0.575507C16.8496 0.556658 16.8658 0.538666 16.883 0.521614L16.8803 0.519847Z" fill="#FBAF17"/>
</svg>
