<svg width="15" height="16" viewBox="0 0 15 16" fill="none" xmlns="http://www.w3.org/2000/svg">
<path d="M8.81666 7.98702L14.6987 1.71233C14.7858 1.61925 14.855 1.50873 14.9022 1.38708C14.9495 1.26543 14.9738 1.13503 14.9738 1.00333C14.9739 0.871636 14.9497 0.741215 14.9026 0.619519C14.8555 0.497822 14.7864 0.387233 14.6993 0.294065C14.6122 0.200897 14.5087 0.126974 14.3949 0.0765186C14.2811 0.0260629 14.159 6.19097e-05 14.0358 1.10423e-07C13.9125 -6.16888e-05 13.7905 0.0258169 13.6766 0.0761584C13.5627 0.1265 13.4592 0.200318 13.372 0.293399L7.5 6.57874L1.62797 0.293399C1.45046 0.114041 1.21447 0.0157657 0.970193 0.0194779C0.725917 0.0231901 0.492634 0.128597 0.319968 0.313277C0.147303 0.497956 0.0488794 0.747335 0.0456348 1.00837C0.0423903 1.2694 0.134581 1.52148 0.302595 1.711L6.18334 7.98702L0.302595 14.2604C0.209593 14.3519 0.134863 14.4626 0.0828972 14.5857C0.0309314 14.7089 0.00280183 14.842 0.000198838 14.9771C-0.00240415 15.1121 0.0205731 15.2464 0.06775 15.3717C0.114927 15.4971 0.18533 15.6109 0.274728 15.7064C0.364126 15.802 0.470674 15.8772 0.587971 15.9276C0.705267 15.978 0.83089 16.0026 0.957291 15.9998C1.08369 15.997 1.20826 15.9669 1.32352 15.9114C1.43877 15.8559 1.54233 15.776 1.62797 15.6767L7.5 9.39131L13.372 15.6767C13.4577 15.776 13.5612 15.8559 13.6765 15.9114C13.7917 15.9669 13.9163 15.997 14.0427 15.9998C14.1691 16.0026 14.2947 15.978 14.412 15.9276C14.5293 15.8772 14.6359 15.802 14.7253 15.7064C14.8147 15.6109 14.8851 15.4971 14.9323 15.3717C14.9794 15.2464 15.0024 15.1121 14.9998 14.9771C14.9972 14.842 14.9691 14.7089 14.9171 14.5857C14.8651 14.4626 14.7904 14.3519 14.6974 14.2604L8.81666 7.98702Z" fill="#1B1B1B"/>
</svg>
