<svg width="21" height="22" viewBox="0 0 21 22" fill="none" xmlns="http://www.w3.org/2000/svg">
<g clip-path="url(#clip0_1767_11338)">
<path d="M6.03979 6.51843H13.1597" stroke="#5A5A5A" stroke-width="1.80952" stroke-linecap="round" stroke-linejoin="round"/>
<path d="M6.03979 10.3656H10.412" stroke="#5A5A5A" stroke-width="1.80952" stroke-linecap="round" stroke-linejoin="round"/>
<path d="M6.03979 14.2124H10.412" stroke="#5A5A5A" stroke-width="1.80952" stroke-linecap="round" stroke-linejoin="round"/>
<path d="M12.6891 19.9572H4.56985C3.79079 19.957 3.04368 19.6475 2.49285 19.0966C1.94202 18.5456 1.63257 17.7985 1.63257 17.0194V3.79445C1.63251 3.44458 1.70138 3.09813 1.83524 2.77488C1.9691 2.45163 2.16532 2.15792 2.41272 1.91053C2.66011 1.66313 2.95381 1.4669 3.27706 1.33304C3.6003 1.19918 3.94675 1.13031 4.29661 1.13037H15.4798C15.8145 1.13031 16.146 1.1962 16.4552 1.32426C16.7645 1.45232 17.0454 1.64006 17.2821 1.87674C17.5188 2.11342 17.7065 2.39442 17.8346 2.70367C17.9627 3.01292 18.0285 3.34437 18.0285 3.67909V10.3658" stroke="#5A5A5A" stroke-width="2.26667" stroke-linecap="round" stroke-linejoin="round"/>
<path d="M16.6654 16.8148C15.9285 16.7925 15.2149 16.5511 14.6157 16.1213V21.0876C14.6158 21.1438 14.6322 21.1987 14.6628 21.2458C14.6935 21.2929 14.7371 21.3301 14.7884 21.3529C14.8398 21.3757 14.8966 21.3832 14.9521 21.3744C15.0076 21.3656 15.0594 21.3409 15.1011 21.3034L15.3459 21.0822L16.7794 19.7888V16.8176C16.7419 16.8176 16.7025 16.8157 16.6654 16.8148Z" fill="#5A5A5A"/>
<path d="M16.8971 16.8151C17.6348 16.7932 18.3493 16.5517 18.9491 16.1216V21.0878C18.949 21.144 18.9326 21.199 18.9019 21.246C18.8713 21.2931 18.8277 21.3303 18.7763 21.3532C18.725 21.376 18.6682 21.3834 18.6127 21.3747C18.5572 21.3659 18.5054 21.3412 18.4637 21.3036L18.2189 21.0824L16.7876 19.789V16.8178C16.8229 16.8178 16.86 16.816 16.8971 16.8151Z" fill="#5A5A5A"/>
<path d="M18.9283 10.0549C18.3005 9.608 17.5488 9.3681 16.7782 9.36865C16.7406 9.36865 16.7035 9.36865 16.6664 9.37137C15.6981 9.39962 14.7789 9.80414 14.104 10.4991C13.4291 11.194 13.0515 12.1246 13.0515 13.0933C13.0515 14.0621 13.4291 14.9927 14.104 15.6876C14.7789 16.3825 15.6981 16.7871 16.6664 16.8153C16.7035 16.8153 16.7406 16.818 16.7782 16.818C17.5687 16.8185 18.3389 16.5673 18.9771 16.1008C19.6154 15.6343 20.0885 14.9767 20.328 14.2233C20.5675 13.4699 20.561 12.6598 20.3094 11.9104C20.0577 11.1609 19.574 10.5111 18.9283 10.0549ZM16.7782 14.5561C16.7406 14.5561 16.7031 14.5561 16.6664 14.5511C16.2992 14.5229 15.9561 14.3571 15.7057 14.0868C15.4554 13.8165 15.3164 13.4617 15.3164 13.0933C15.3164 12.725 15.4554 12.3702 15.7057 12.0999C15.9561 11.8296 16.2992 11.6638 16.6664 11.6355C16.7031 11.6324 16.7406 11.6306 16.7782 11.6306C17.1617 11.6373 17.5272 11.7944 17.796 12.068C18.0648 12.3416 18.2154 12.7098 18.2154 13.0933C18.2154 13.4769 18.0648 13.8451 17.796 14.1187C17.5272 14.3923 17.1617 14.5494 16.7782 14.5561Z" fill="#5A5A5A"/>
</g>
<defs>
<clipPath id="clip0_1767_11338">
<rect width="20" height="21.3796" fill="white" transform="translate(0.5)"/>
</clipPath>
</defs>
</svg>
