<svg width="20" height="20" viewBox="0 0 20 20" fill="none" xmlns="http://www.w3.org/2000/svg">
<path d="M13.6063 19H17.7109C18.0528 18.9997 18.3807 18.8642 18.6224 18.6233C18.8641 18.3823 18.9999 18.0557 19 17.7151V8.85994C18.9999 8.64695 18.9467 8.43731 18.8452 8.24986C18.7437 8.06242 18.597 7.90303 18.4183 7.78603L11.0611 1.27721C10.7825 1.09497 10.4561 0.998554 10.1228 1.00002C9.78941 1.00148 9.46389 1.10075 9.18686 1.28543L1.57223 7.64117C1.39612 7.75868 1.25178 7.91759 1.15198 8.10387C1.05218 8.29015 0.999978 8.49806 1 8.70921V17.7139C0.999948 17.8827 1.03327 18.0498 1.09807 18.2057C1.16287 18.3617 1.25787 18.5034 1.37765 18.6227C1.49744 18.7421 1.63965 18.8368 1.79617 18.9014C1.95269 18.966 2.12045 18.9992 2.28987 18.9992H6.54934V13.6148C6.5493 13.3584 6.6078 13.1052 6.72042 12.8746C6.83303 12.644 6.99682 12.4419 7.19939 12.2837C8.24638 11.4646 10.4457 10.3085 12.9617 12.3048C13.1624 12.4634 13.3245 12.6651 13.4361 12.8947C13.5477 13.1244 13.6058 13.3761 13.6063 13.6312V19Z" stroke="white" stroke-width="1.7" stroke-linecap="round" stroke-linejoin="round"/>
</svg>
