<svg width="22" height="18" viewBox="0 0 22 18" fill="none" xmlns="http://www.w3.org/2000/svg">
<path d="M19.2216 5.63965H14.0314C13.6902 5.63965 13.4136 5.91622 13.4136 6.25739V16.8375C13.4136 17.1787 13.6902 17.4553 14.0314 17.4553H19.2216C19.5628 17.4553 19.8393 17.1787 19.8393 16.8375V6.25739C19.8393 5.91622 19.5628 5.63965 19.2216 5.63965Z" stroke="#171717" stroke-width="1.04335" stroke-miterlimit="10"/>
<path d="M16.6461 7.76465H14.2773C13.7027 7.76465 13.2368 8.23046 13.2368 8.80506C13.2368 9.37967 13.7027 9.84548 14.2773 9.84548H16.6461C17.2207 9.84548 17.6866 9.37967 17.6866 8.80506C17.6866 8.23046 17.2207 7.76465 16.6461 7.76465Z" stroke="#171717" stroke-width="1.04335" stroke-miterlimit="10"/>
<path d="M16.6466 11.541H14.2778C13.7031 11.541 13.2373 12.0068 13.2373 12.5814C13.2373 13.156 13.7031 13.6218 14.2778 13.6218H16.6466C17.2212 13.6218 17.687 13.156 17.687 12.5814C17.687 12.0068 17.2212 11.541 16.6466 11.541Z" stroke="#171717" stroke-width="1.04335" stroke-miterlimit="10"/>
<path d="M11.0344 17.43H13.1968C13.3348 17.43 13.4671 17.3752 13.5647 17.2777C13.6622 17.1801 13.717 17.0478 13.717 16.9098V2.0124C13.717 1.87443 13.6622 1.74211 13.5647 1.64455C13.4671 1.54699 13.3348 1.49219 13.1968 1.49219H3.55295C3.41497 1.49219 3.28265 1.54699 3.18509 1.64455C3.08753 1.74211 3.03271 1.87443 3.03271 2.0124V16.9098C3.03271 17.0478 3.08753 17.1801 3.18509 17.2777C3.28265 17.3752 3.41497 17.43 3.55295 17.43H5.69328C5.81976 17.43 5.94106 17.3798 6.03049 17.2904C6.11992 17.201 6.17017 17.0797 6.17017 16.9532V13.3161C6.17073 13.1562 6.23439 13.0029 6.34731 12.8897C6.46023 12.7765 6.61329 12.7124 6.7732 12.7113H9.94404C10.1044 12.7113 10.2583 12.7748 10.372 12.8879C10.4857 13.0009 10.5501 13.1544 10.551 13.3148L10.5614 16.9562C10.5622 17.0815 10.6122 17.2014 10.7007 17.2901C10.7892 17.3787 10.9091 17.429 11.0344 17.43Z" fill="white" stroke="#171717" stroke-width="1.04335" stroke-miterlimit="10"/>
<path d="M6.28867 7.28809H5.49965C5.07107 7.28809 4.72363 7.6355 4.72363 8.06406V8.59294C4.72363 9.0215 5.07107 9.36892 5.49965 9.36892H6.28867C6.71726 9.36892 7.06469 9.0215 7.06469 8.59294V8.06406C7.06469 7.6355 6.71726 7.28809 6.28867 7.28809Z" stroke="#171717" stroke-width="1.04335" stroke-miterlimit="10"/>
<path d="M11.1764 7.28809H10.3873C9.95876 7.28809 9.61133 7.6355 9.61133 8.06406V8.59294C9.61133 9.0215 9.95876 9.36892 10.3873 9.36892H11.1764C11.605 9.36892 11.9524 9.0215 11.9524 8.59294V8.06406C11.9524 7.6355 11.605 7.28809 11.1764 7.28809Z" stroke="#171717" stroke-width="1.04335" stroke-miterlimit="10"/>
<path d="M6.28867 3.70898H5.49965C5.07107 3.70898 4.72363 4.0564 4.72363 4.48496V5.01384C4.72363 5.4424 5.07107 5.78981 5.49965 5.78981H6.28867C6.71726 5.78981 7.06469 5.4424 7.06469 5.01384V4.48496C7.06469 4.0564 6.71726 3.70898 6.28867 3.70898Z" stroke="#171717" stroke-width="1.04335" stroke-miterlimit="10"/>
<path d="M11.1764 3.70898H10.3873C9.95876 3.70898 9.61133 4.0564 9.61133 4.48496V5.01384C9.61133 5.4424 9.95876 5.78981 10.3873 5.78981H11.1764C11.605 5.78981 11.9524 5.4424 11.9524 5.01384V4.48496C11.9524 4.0564 11.605 3.70898 11.1764 3.70898Z" stroke="#171717" stroke-width="1.04335" stroke-miterlimit="10"/>
<path d="M1.37598 17.4541H21.376" stroke="#171717" stroke-width="1.04335" stroke-miterlimit="10" stroke-linecap="round"/>
</svg>
