<svg width="18" height="16" viewBox="0 0 18 16" fill="none" xmlns="http://www.w3.org/2000/svg">
<g clip-path="url(#clip0_1012_10856)">
<path d="M9 14.3676C13.9706 14.3676 18 11.1793 18 7.24629C18 3.31331 13.9706 0.125 9 0.125C4.02944 0.125 0 3.31331 0 7.24629C0 11.1793 4.02944 14.3676 9 14.3676Z" fill="black"/>
<path d="M3.00168 11.4639C3.00168 11.4639 2.05395 13.6639 1.33353 15.107C1.28861 15.1973 1.26925 15.3001 1.27789 15.4025C1.28653 15.5048 1.32279 15.602 1.38206 15.6818C1.44133 15.7615 1.52093 15.8201 1.61073 15.8502C1.70053 15.8803 1.79648 15.8805 1.88637 15.8507L8.46601 13.6749L3.00168 11.4639Z" fill="black"/>
</g>
<defs>
<clipPath id="clip0_1012_10856">
<rect width="18" height="15.75" fill="white" transform="translate(0 0.125)"/>
</clipPath>
</defs>
</svg>
