<svg width="53" height="50" viewBox="0 0 53 50" fill="none" xmlns="http://www.w3.org/2000/svg">
<g clip-path="url(#clip0_1085_9742)">
<path d="M32.7456 28.0647C29.7971 23.0403 26.062 19.7238 24.4033 20.6578C24.1489 20.8098 23.9526 21.0399 23.8442 21.3132C23.0956 23.0197 24.2258 27.162 26.7407 31.4457C27.4458 32.6544 28.2356 33.8138 29.1041 34.9154C30.9768 37.2759 32.8697 38.8104 34.1871 38.9913C34.448 38.8798 34.6088 38.5998 34.4868 38.3929L32.0541 34.2484L32.3425 34.1818L34.4871 38.3915L34.4974 38.408C34.6152 38.6087 34.4688 38.876 34.2237 38.9946C34.5193 39.0404 34.8211 38.9901 35.0833 38.8513C36.7417 37.9187 35.6949 33.0886 32.7456 28.0647Z" fill="#DDB922"/>
<path d="M37.8987 29.0572C38.3799 29.1871 38.8734 28.9092 39.001 28.4366C39.1286 27.9639 38.8419 27.4754 38.3606 27.3455C37.8794 27.2156 37.3858 27.4935 37.2583 27.9662C37.1307 28.4389 37.4174 28.9273 37.8987 29.0572Z" stroke="#F297B5" stroke-width="1.24171" stroke-miterlimit="10"/>
<path d="M42.0212 23.0407C42.6629 23.2138 43.3209 22.8433 43.491 22.2131C43.6611 21.5829 43.2788 20.9316 42.6372 20.7584C41.9955 20.5852 41.3375 20.9557 41.1674 21.586C40.9973 22.2162 41.3795 22.8675 42.0212 23.0407Z" stroke="#FFDC94" stroke-width="1.24171" stroke-miterlimit="10"/>
<path d="M34.1899 22.9204C34.6844 23.0538 35.1916 22.7683 35.3226 22.2826C35.4537 21.7969 35.1591 21.295 34.6646 21.1616C34.1701 21.0281 33.663 21.3136 33.5319 21.7993C33.4009 22.285 33.6955 22.7869 34.1899 22.9204Z" stroke="#6AD7FF" stroke-width="1.24171" stroke-miterlimit="10" stroke-linecap="round"/>
<path d="M48.1031 30.4608C48.5578 30.5836 49.0242 30.321 49.1447 29.8743C49.2653 29.4277 48.9944 28.9661 48.5396 28.8433C48.0848 28.7206 47.6185 28.9832 47.4979 29.4298C47.3774 29.8765 47.6483 30.3381 48.1031 30.4608Z" stroke="#56E8BB" stroke-width="0.886938" stroke-miterlimit="10"/>
<path d="M24.693 28.6989C25.228 28.8433 25.7766 28.5344 25.9184 28.0089C26.0602 27.4835 25.7415 26.9405 25.2066 26.7961C24.6716 26.6517 24.123 26.9606 23.9811 27.4861C23.8393 28.0115 24.158 28.5545 24.693 28.6989Z" stroke="#F297B5" stroke-width="0.886938" stroke-miterlimit="10"/>
<path d="M34.1736 14.5366C34.3817 14.5928 34.5951 14.4726 34.6502 14.2683C34.7054 14.0639 34.5814 13.8527 34.3734 13.7965C34.1653 13.7404 33.9519 13.8605 33.8967 14.0649C33.8415 14.2693 33.9655 14.4805 34.1736 14.5366Z" fill="#6AD7FF"/>
<path d="M36.2434 18.8491C36.4515 18.9053 36.6649 18.7851 36.7201 18.5808C36.7752 18.3764 36.6513 18.1652 36.4432 18.109C36.2351 18.0529 36.0217 18.173 35.9665 18.3774C35.9114 18.5818 36.0353 18.793 36.2434 18.8491Z" fill="#F297B5"/>
<path d="M27.0604 26.1875C27.2685 26.2437 27.4819 26.1235 27.5371 25.9191C27.5922 25.7148 27.4683 25.5036 27.2602 25.4474C27.0521 25.3912 26.8387 25.5114 26.7835 25.7158C26.7284 25.9201 26.8524 26.1314 27.0604 26.1875Z" fill="#F297B5"/>
<path d="M44.2714 29.6777C44.4795 29.7339 44.6929 29.6138 44.748 29.4094C44.8032 29.205 44.6792 28.9938 44.4711 28.9376C44.263 28.8815 44.0496 29.0016 43.9945 29.206C43.9393 29.4104 44.0633 29.6216 44.2714 29.6777Z" fill="#DA77F2"/>
<path d="M45.7671 22.502C45.9752 22.5581 46.1886 22.438 46.2438 22.2336C46.2989 22.0292 46.1749 21.818 45.9669 21.7618C45.7588 21.7057 45.5454 21.8258 45.4902 22.0302C45.4351 22.2346 45.559 22.4458 45.7671 22.502Z" fill="#F297B5"/>
<path d="M41.1134 36.4771C41.3215 36.5332 41.5349 36.4131 41.5901 36.2087C41.6452 36.0043 41.5213 35.7931 41.3132 35.7369C41.1051 35.6808 40.8917 35.8009 40.8365 36.0053C40.7814 36.2097 40.9053 36.4209 41.1134 36.4771Z" fill="#6AD7FF"/>
<path d="M30.0631 19.4185C30.2712 19.4746 30.4846 19.3545 30.5398 19.1501C30.5949 18.9457 30.471 18.7345 30.2629 18.6783C30.0548 18.6222 29.8414 18.7423 29.7862 18.9467C29.7311 19.1511 29.855 19.3623 30.0631 19.4185Z" fill="#6AD7FF"/>
<path d="M33.9972 39.039L10.6155 40.8731C10.5465 40.8834 10.4758 40.8744 10.4114 40.8471C10.347 40.8198 10.2916 40.7752 10.2515 40.7185C10.313 40.8311 10.4462 40.9039 10.6252 40.8916L34.0073 39.0562C34.0826 39.0496 34.1559 39.0292 34.2234 38.9961L34.1872 38.9914C34.127 39.0176 34.0628 39.0336 33.9972 39.039Z" fill="#FCDB51"/>
<path d="M10.2982 40.3328L11.2802 38.9492L11.2543 38.9552L10.2888 40.3159C10.2426 40.3716 10.2146 40.4398 10.2083 40.5117C10.202 40.5835 10.2177 40.6558 10.2534 40.7192C10.2234 40.6568 10.2117 40.5875 10.2196 40.5192C10.2275 40.4509 10.2547 40.3863 10.2982 40.3328Z" fill="#F4D451"/>
<path d="M10.6154 40.873L33.9972 39.0389C34.0628 39.0336 34.127 39.0175 34.1871 38.9913C32.8697 38.8104 30.9755 37.2756 29.1042 34.9154L11.2802 38.949L10.2983 40.3326C10.2546 40.3859 10.227 40.4503 10.2188 40.5185C10.2105 40.5867 10.2218 40.656 10.2515 40.7185C10.2916 40.7752 10.347 40.8197 10.4114 40.847C10.4757 40.8744 10.5465 40.8834 10.6154 40.873Z" fill="#F4D451"/>
<path d="M34.4971 38.4096L34.4868 38.3932C34.6087 38.6007 34.448 38.88 34.1872 38.9915L34.2234 38.9963C34.4685 38.8776 34.6149 38.6103 34.4971 38.4096Z" fill="#DDB922"/>
<path d="M34.487 38.3925L32.3424 34.1828L32.0544 34.248L34.487 38.3925Z" fill="#DDB922"/>
<path d="M39.9566 25.8545C38.6439 26.5627 37.3324 24.236 36.0204 24.9444C34.7084 25.6529 36.0196 27.981 34.7069 28.6893C33.3943 29.3976 32.0834 27.071 30.7707 27.7792C29.4581 28.4875 30.7699 30.8158 29.4571 31.5248C28.1442 32.2337 26.8329 29.9063 25.5209 30.6147" stroke="#56E8BB" stroke-width="1.59649" stroke-miterlimit="10" stroke-linecap="round"/>
<path d="M26.7414 31.443C24.2231 27.1584 23.0963 23.017 23.845 21.3105C23.7818 21.351 23.727 21.4027 23.6833 21.4632L11.2802 38.9489L29.1041 34.9154C28.2357 33.8129 27.4462 32.6526 26.7414 31.443Z" fill="#FCDB51"/>
<path d="M47.2757 34.3236C46.3729 34.3058 46.3919 32.6312 45.4889 32.6142C44.5858 32.5971 44.5664 34.2702 43.6636 34.2524C42.7607 34.2347 42.7798 32.5601 41.8761 32.5429C40.9723 32.5256 40.9541 34.1997 40.0508 34.1811C39.1474 34.1625 39.167 32.4888 38.2633 32.4715" stroke="#6AD7FF" stroke-width="1.24171" stroke-miterlimit="10" stroke-linecap="round"/>
<path d="M36.2733 16.01C35.6899 16.8863 34.2653 15.9589 33.6819 16.8352C33.0985 17.7114 34.5233 18.6381 33.9401 19.5136C33.3569 20.3892 31.9314 19.4623 31.3482 20.3379C30.765 21.2135 32.1895 22.1415 31.6063 23.017C31.0231 23.8926 29.5983 22.9659 29.0149 23.8422" stroke="#FFDC94" stroke-width="1.59649" stroke-miterlimit="10" stroke-linecap="round"/>
<path d="M33.0856 34.6366C33.5404 34.7593 34.0067 34.4968 34.1273 34.0501C34.2478 33.6034 33.9769 33.1418 33.5221 33.0191C33.0674 32.8964 32.601 33.159 32.4805 33.6056C32.3599 34.0523 32.6308 34.5139 33.0856 34.6366Z" stroke="#DA77F2" stroke-width="0.886938" stroke-miterlimit="10"/>
</g>
<g clip-path="url(#clip1_1085_9742)">
<path d="M16.4841 14.8747C20.2949 15.8242 23.1511 17.6077 22.8631 18.8582C22.8133 19.0517 22.7018 19.2225 22.5458 19.3446C21.5849 20.1538 18.6909 20.2121 15.4417 19.4019C14.5258 19.1761 13.6256 18.8863 12.7478 18.5345C10.8645 17.7732 9.51164 16.8415 9.1437 16.024C9.1661 15.8341 9.31652 15.6768 9.47355 15.7163L12.6171 16.4998L12.6052 16.3006L9.47436 15.7158L9.46174 15.7123C9.30951 15.6743 9.16456 15.8199 9.13455 16.001C9.04861 15.8186 9.02366 15.6138 9.06348 15.4178C9.35062 14.1678 12.6735 13.9245 16.4841 14.8747Z" fill="#F2BA65"/>
<path d="M14.8607 11.7311C14.685 11.4447 14.7707 11.0726 15.052 10.9001C15.3334 10.7275 15.7039 10.8199 15.8796 11.1063C16.0552 11.3928 15.9695 11.7649 15.6882 11.9374C15.4068 12.11 15.0363 12.0176 14.8607 11.7311Z" stroke="#F297B5" stroke-width="0.837085" stroke-miterlimit="10"/>
<path d="M17.9658 7.91936C17.7316 7.53741 17.8458 7.04129 18.2209 6.81124C18.5961 6.58118 19.0901 6.70432 19.3243 7.08626C19.5585 7.4682 19.4443 7.96433 19.0692 8.19438C18.694 8.42443 18.2 8.3013 17.9658 7.91936Z" stroke="#FFDC94" stroke-width="0.837085" stroke-miterlimit="10"/>
<path d="M19.5357 12.9606C19.3552 12.6663 19.4432 12.284 19.7323 12.1067C20.0214 11.9294 20.4021 12.0243 20.5826 12.3186C20.7631 12.613 20.6751 12.9953 20.386 13.1726C20.0969 13.3499 19.7162 13.255 19.5357 12.9606Z" stroke="#6AD7FF" stroke-width="0.837085" stroke-miterlimit="10" stroke-linecap="round"/>
<path d="M12.0091 5.40011C11.8431 5.12941 11.924 4.7778 12.1899 4.61475C12.4558 4.45171 12.8059 4.53898 12.9719 4.80967C13.1379 5.08036 13.0569 5.43198 12.7911 5.59502C12.5252 5.75807 12.1751 5.6708 12.0091 5.40011Z" stroke="#56E8BB" stroke-width="0.597918" stroke-miterlimit="10"/>
<path d="M17.6083 20.2025C17.413 19.884 17.5082 19.4704 17.821 19.2786C18.1338 19.0868 18.5456 19.1895 18.7409 19.5079C18.9362 19.8263 18.8409 20.24 18.5282 20.4318C18.2154 20.6236 17.8036 20.5209 17.6083 20.2025Z" stroke="#F297B5" stroke-width="0.597918" stroke-miterlimit="10"/>
<path d="M24.9602 11.374C24.8843 11.2502 24.9213 11.0893 25.043 11.0147C25.1646 10.9401 25.3248 10.98 25.4008 11.1039C25.4768 11.2277 25.4397 11.3886 25.3181 11.4632C25.1964 11.5378 25.0362 11.4979 24.9602 11.374Z" fill="#6AD7FF"/>
<path d="M21.7773 10.8569C21.7013 10.7331 21.7383 10.5722 21.86 10.4976C21.9817 10.423 22.1419 10.4629 22.2178 10.5868C22.2938 10.7106 22.2567 10.8715 22.1351 10.9461C22.0134 11.0207 21.8532 10.9808 21.7773 10.8569Z" fill="#F297B5"/>
<path d="M18.7812 18.1934C18.7052 18.0695 18.7423 17.9086 18.8639 17.834C18.9856 17.7594 19.1458 17.7993 19.2217 17.9232C19.2977 18.0471 19.2606 18.2079 19.139 18.2825C19.0173 18.3571 18.8571 18.3172 18.7812 18.1934Z" fill="#F297B5"/>
<path d="M13.2453 7.72851C13.1693 7.60465 13.2064 7.44376 13.328 7.36916C13.4497 7.29455 13.6099 7.33448 13.6858 7.45835C13.7618 7.58221 13.7247 7.7431 13.6031 7.8177C13.4814 7.8923 13.3212 7.85237 13.2453 7.72851Z" fill="#DA77F2"/>
<path d="M17.6006 5.39453C17.5247 5.27067 17.5617 5.10978 17.6834 5.03517C17.805 4.96057 17.9652 5.0005 18.0412 5.12436C18.1171 5.24822 18.0801 5.40911 17.9584 5.48372C17.8368 5.55832 17.6766 5.51839 17.6006 5.39453Z" fill="#F297B5"/>
<path d="M9.45011 11.0659C9.37415 10.9421 9.4112 10.7812 9.53285 10.7066C9.65451 10.632 9.8147 10.6719 9.89066 10.7957C9.96662 10.9196 9.92958 11.0805 9.80792 11.1551C9.68627 11.2297 9.52607 11.1898 9.45011 11.0659Z" fill="#6AD7FF"/>
<path d="M22.5862 14.9619C22.5103 14.838 22.5473 14.6772 22.669 14.6026C22.7906 14.528 22.9508 14.5679 23.0268 14.6917C23.1027 14.8156 23.0657 14.9765 22.944 15.0511C22.8224 15.1257 22.6622 15.0858 22.5862 14.9619Z" fill="#6AD7FF"/>
<path d="M9.14913 16.156L12.4175 31.6254C12.424 31.672 12.4433 31.716 12.4732 31.7524C12.5031 31.7888 12.5425 31.8162 12.5868 31.8313C12.5023 31.813 12.4298 31.7407 12.4037 31.6226L9.13612 16.1527C9.12604 16.1028 9.12524 16.0515 9.13378 16.0016L9.14373 16.0241C9.13827 16.0679 9.14009 16.1125 9.14913 16.156Z" fill="#FCDB51"/>
<path d="M12.8273 31.7276L13.535 30.829L13.5361 30.8468L12.8401 31.7304C12.8129 31.7709 12.7741 31.802 12.7288 31.8198C12.6835 31.8375 12.6338 31.8411 12.586 31.8301C12.6321 31.8377 12.6791 31.832 12.7218 31.8139C12.7644 31.7958 12.801 31.7659 12.8273 31.7276Z" fill="#F4D451"/>
<path d="M12.4174 31.6253L9.14906 16.1559C9.14002 16.1124 9.1382 16.0679 9.14366 16.024C9.51161 16.8415 10.865 17.774 12.7477 18.5345L13.535 30.8289L12.8273 31.7275C12.8012 31.7659 12.7648 31.796 12.7223 31.8143C12.6798 31.8327 12.6328 31.8385 12.5867 31.8313C12.5424 31.8161 12.5031 31.7888 12.4731 31.7524C12.4432 31.7159 12.4239 31.6719 12.4174 31.6253Z" fill="#F9C77D"/>
<path d="M9.46088 15.7128L9.4735 15.7163C9.31606 15.6771 9.16604 15.8342 9.14364 16.0241L9.13369 16.0016C9.1637 15.8204 9.30865 15.6749 9.46088 15.7128Z" fill="#DDB922"/>
<path d="M9.47395 15.7158L12.6048 16.3006L12.6175 16.4993L9.47395 15.7158Z" fill="#DDB922"/>
<path d="M16.5396 9.79065C16.3316 10.7744 18.0861 11.1793 17.8779 12.1627C17.6697 13.146 15.9144 12.7417 15.7065 13.7255C15.4986 14.7092 17.2528 15.1137 17.0449 16.0975C16.8369 17.0812 15.0814 16.6765 14.873 17.6605C14.6647 18.6445 16.4196 19.0491 16.2114 20.0325" stroke="#56E8BB" stroke-width="1.07625" stroke-miterlimit="10" stroke-linecap="round"/>
<path d="M15.4434 19.401C18.6938 20.2133 21.5866 20.153 22.5475 19.3438C22.5333 19.3923 22.5103 19.4377 22.4795 19.4774L13.5351 30.8291L12.7478 18.5347C13.6262 18.8862 14.5269 19.1757 15.4434 19.401Z" fill="#FFD391"/>
<path d="M9.66864 6.67092C9.85212 7.25139 10.9314 6.92003 11.1144 7.50075C11.2975 8.08146 10.2193 8.41272 10.4028 8.99319C10.5863 9.57365 11.6655 9.2423 11.8488 9.82342C12.0322 10.4045 10.953 10.7352 11.1372 11.3159C11.3213 11.8965 12.3999 11.565 12.5832 12.1461" stroke="#6AD7FF" stroke-width="0.837085" stroke-miterlimit="10" stroke-linecap="round"/>
<path d="M23.6075 10.297C23.152 10.8412 24.023 11.5858 23.5676 12.13C23.1121 12.6741 22.2414 11.9293 21.7863 12.4732C21.3312 13.0171 22.2021 13.7624 21.7471 14.3063C21.292 14.8502 20.4205 14.1059 19.9654 14.6498C19.5103 15.1937 20.381 15.9386 19.9255 16.4828" stroke="#FFDC94" stroke-width="1.07625" stroke-miterlimit="10" stroke-linecap="round"/>
<path d="M12.1696 15.9065C12.0036 15.6358 12.0846 15.2841 12.3504 15.1211C12.6163 14.9581 12.9664 15.0453 13.1324 15.316C13.2984 15.5867 13.2175 15.9383 12.9516 16.1014C12.6857 16.2644 12.3356 16.1771 12.1696 15.9065Z" stroke="#DA77F2" stroke-width="0.597918" stroke-miterlimit="10"/>
</g>
<defs>
<clipPath id="clip0_1085_9742">
<rect width="35" height="32.375" fill="white" transform="translate(18.566 9.53027) rotate(15.1038)"/>
</clipPath>
<clipPath id="clip1_1085_9742">
<rect width="23.5949" height="21.8251" fill="white" transform="matrix(-0.522779 -0.852468 -0.852471 0.522775 31.1707 20.5132)"/>
</clipPath>
</defs>
</svg>
