<svg width="19" height="10" viewBox="0 0 19 10" fill="none" xmlns="http://www.w3.org/2000/svg">
<path d="M12.2209 8.2322L18.1126 2.47324C18.3517 2.23816 18.4858 1.92015 18.4858 1.58869C18.4858 1.25722 18.3517 0.939219 18.1126 0.704139C17.9933 0.58654 17.8513 0.4932 17.6949 0.429501C17.5385 0.365803 17.3707 0.333008 17.2012 0.333008C17.0318 0.333008 16.864 0.365803 16.7076 0.429501C16.5512 0.4932 16.4092 0.58654 16.2899 0.704139L10.4111 6.47565C10.2918 6.59325 10.1498 6.68659 9.99337 6.75029C9.83695 6.81399 9.66918 6.84679 9.49973 6.84679C9.33028 6.84679 9.16251 6.81399 9.0061 6.75029C8.84968 6.68659 8.70771 6.59325 8.58839 6.47565L2.70957 0.704139C2.46957 0.467878 2.14338 0.334488 1.80277 0.333311C1.46215 0.332135 1.13501 0.46327 0.893303 0.697866C0.651598 0.932463 0.515133 1.2513 0.513929 1.58425C0.512726 1.9172 0.646885 2.23697 0.886885 2.47323L6.77854 8.2322C7.50055 8.93708 8.47928 9.33301 9.49973 9.33301C10.5202 9.33301 11.4989 8.93708 12.2209 8.2322Z" fill="#959595"/>
</svg>
