<svg width="26" height="26" viewBox="0 0 26 26" fill="none" xmlns="http://www.w3.org/2000/svg">
<path d="M16.9128 23.9245H21.367C21.7381 23.9241 22.0938 23.7765 22.3561 23.5141C22.6184 23.2516 22.7658 22.8958 22.7659 22.5247V12.8785C22.7658 12.6465 22.7081 12.4181 22.5979 12.2139C22.4877 12.0098 22.3286 11.8361 22.1347 11.7087L14.1509 4.61838C13.8485 4.41986 13.4943 4.31483 13.1326 4.31642C12.7709 4.31802 12.4176 4.42616 12.117 4.62733L3.85387 11.5509C3.66277 11.6789 3.50614 11.852 3.39783 12.0549C3.28953 12.2578 3.23289 12.4843 3.23291 12.7143V22.5235C3.23285 22.7073 3.26902 22.8894 3.33934 23.0592C3.40965 23.2291 3.51275 23.3835 3.64273 23.5135C3.77271 23.6435 3.92703 23.7466 4.09688 23.817C4.26673 23.8874 4.44878 23.9236 4.63263 23.9236H9.25486V18.0582C9.25482 17.7788 9.3183 17.5031 9.4405 17.2519C9.56271 17.0007 9.74045 16.7805 9.96027 16.6081C11.0964 15.7159 13.483 14.4565 16.2134 16.6312C16.4311 16.8039 16.607 17.0236 16.7281 17.2737C16.8492 17.5239 16.9123 17.7982 16.9128 18.0761V23.9245Z" stroke="#BFBFBF" stroke-width="2" stroke-linecap="round" stroke-linejoin="round"/>
</svg>
