<svg width="29" height="29" viewBox="0 0 29 29" fill="none" xmlns="http://www.w3.org/2000/svg">
<g clip-path="url(#clip0_1_9938)">
<path d="M23.3794 7.32533C20.8147 4.96802 17.3408 3.32448 15.1493 2.32896C14.642 2.10356 14.0678 2.10356 13.5606 2.32896C11.3787 3.32448 7.8952 4.96802 5.33045 7.32533C3.21548 9.2788 -0.267997 13.0542 0.612442 14.3879C1.22492 15.3176 3.23462 14.0122 4.74668 15.1204C6.94777 16.7264 4.68926 20.8869 6.65111 23.8077C7.53154 25.1131 9.48382 26.5313 14.3454 26.6534C19.2069 26.5407 21.1688 25.1225 22.0396 23.8077C24.0015 20.8775 21.743 16.7264 23.9441 15.1204C25.4657 14.0122 27.4658 15.3176 28.0783 14.3879C28.9779 13.0542 25.4944 9.2788 23.3794 7.32533ZM19.4175 21.2344L15.9244 22.2111C14.9004 22.5023 13.819 22.5023 12.795 22.2111L9.30199 21.2344C9.05317 21.2344 8.8522 21.009 8.8522 20.7272C8.8522 20.4455 9.05317 20.2201 9.30199 20.2201L12.795 21.1968C13.819 21.488 14.9004 21.488 15.9244 21.1968L19.4175 20.2201C19.6663 20.2201 19.8673 20.4455 19.8673 20.7272C19.8673 21.009 19.6663 21.2344 19.4175 21.2344Z" fill="#BFBFBF"/>
</g>
<defs>
<clipPath id="clip0_1_9938">
<rect width="28.71" height="28.175" fill="white"/>
</clipPath>
</defs>
</svg>
