<svg width="22" height="25" viewBox="0 0 22 25" fill="none" xmlns="http://www.w3.org/2000/svg">
<g clip-path="url(#clip0_3004_3549)">
<path d="M7.61963 5.4569V2.06157C7.61963 1.87352 7.69433 1.69318 7.8273 1.56021C7.96027 1.42724 8.14061 1.35254 8.32866 1.35254H18.6797C19.2016 1.35254 19.7022 1.55989 20.0713 1.92898C20.4404 2.29806 20.6478 2.79865 20.6478 3.32062V14.9366C20.6478 15.1335 20.609 15.3284 20.5336 15.5103C20.4583 15.6922 20.3479 15.8575 20.2087 15.9967C20.0694 16.1359 19.9042 16.2463 19.7223 16.3216C19.5404 16.397 19.3454 16.4358 19.1486 16.4358H16.5131" stroke="#BFBFBF" stroke-width="2" stroke-linecap="square" stroke-linejoin="round"/>
<path d="M3.74902 6.17773H13.643C14.2513 6.17773 14.8347 6.41939 15.2649 6.84953C15.695 7.27968 15.9367 7.86308 15.9367 8.4714V20.9305C15.9367 21.5628 15.6855 22.1692 15.2384 22.6162C14.7914 23.0633 14.185 23.3145 13.5527 23.3145H3.99564C3.29489 23.3145 2.62281 23.0363 2.12711 22.541C1.6314 22.0457 1.35262 21.3738 1.35205 20.6731V8.57524C1.35205 7.93952 1.60459 7.32985 2.05411 6.88033C2.50363 6.43081 3.11331 6.17828 3.74902 6.17828V6.17773Z" stroke="#BFBFBF" stroke-width="2" stroke-linecap="round" stroke-linejoin="round"/>
<path d="M5.40234 10.9854H11.3093" stroke="#BFBFBF" stroke-width="2" stroke-linecap="round" stroke-linejoin="round"/>
<path d="M5.40234 14.5908H8.35583" stroke="#BFBFBF" stroke-width="2" stroke-linecap="round" stroke-linejoin="round"/>
<path d="M5.40234 18.1963H10.7642" stroke="#BFBFBF" stroke-width="2" stroke-linecap="round" stroke-linejoin="round"/>
</g>
<defs>
<clipPath id="clip0_3004_3549">
<rect width="22" height="24.6678" fill="white"/>
</clipPath>
</defs>
</svg>
