<svg width="65" height="65" viewBox="0 0 65 65" fill="none" xmlns="http://www.w3.org/2000/svg">
<g opacity="0.6">
<rect x="0.365168" y="0.365168" width="64.2697" height="63.5392" rx="16.4326" fill="white" stroke="#F2F2F2" stroke-width="0.730336"/>
<g clip-path="url(#clip0_5716_16732)">
<path d="M13.3522 33.2214C14.1598 32.1208 15.7561 34.246 17.4838 35.707C19.5309 37.4337 21.6154 38.9707 21.6154 38.9707C21.6154 38.9707 11.8686 27.3013 14.141 25.0243C15.3241 23.8479 17.4463 26.789 19.775 29.047C22.3103 31.5137 24.902 33.2403 24.902 33.2403C24.902 33.2403 14.6105 19.9961 17.8594 18.0227C19.3806 17.093 21.3901 20.2617 23.7 23.07C26.3105 26.2577 29.1463 29.2177 29.1463 29.2177C29.1463 29.2177 20.4323 15.2145 24.3761 13.9242C25.578 13.5257 27.8504 17.074 30.5548 20.9069C31.9445 22.8802 33.5784 24.8156 35.2686 26.4285C38.649 29.8439 31.7755 35.2327 33.6723 37.0163C34.4047 37.6994 37.3156 36.9594 40.1138 35.0999C42.6304 33.4301 44.6774 31.1911 45.9732 29.5972C46.1047 29.4454 46.2549 29.2936 46.3676 29.1039C46.4427 28.99 46.5366 28.8762 46.6117 28.7623C47.1376 28.0603 47.4193 27.6239 47.4193 27.6239C49.3724 24.8726 50.0861 23.9618 51.2316 24.3413C52.8655 24.8726 52.7153 29.028 52.3585 31.4947C51.5321 37.3578 49.8607 42.481 46.0859 46.5036C41.6538 51.2283 33.9727 51.5318 30.8928 50.8867C18.7233 48.2872 11.831 35.2896 13.3522 33.2214Z" fill="#2CB7A4"/>
</g>
</g>
<defs>
<clipPath id="clip0_5716_16732">
<rect width="39.4381" height="37.2471" fill="white" transform="translate(13.1465 13.8799)"/>
</clipPath>
</defs>
</svg>
