<svg width="18" height="18" viewBox="0 0 18 18" fill="none" xmlns="http://www.w3.org/2000/svg">
<path d="M10.9534 6.6517C12.5842 6.6517 13.9063 5.32968 13.9063 3.6989C13.9063 2.06811 12.5842 0.746094 10.9534 0.746094C9.32255 0.746094 8.00049 2.06811 8.00049 3.6989C8.00049 5.32968 9.32255 6.6517 10.9534 6.6517Z" fill="white" stroke="#171717" stroke-width="1.15881" stroke-linecap="round" stroke-linejoin="round"/>
<path d="M6.30722 15.7491C5.77058 15.7514 5.36496 15.0385 5.48437 14.2882C6.03219 10.8493 8.27269 8.27344 10.9541 8.27344C13.6231 8.27344 15.856 10.8265 16.4163 14.2425C16.5388 14.9916 16.1377 15.7075 15.5993 15.7098L6.30722 15.7491Z" fill="white" stroke="#171717" stroke-width="1.15881" stroke-linecap="round" stroke-linejoin="round"/>
<path d="M6.92848 7.99349C8.55933 7.99349 9.88138 6.67148 9.88138 5.04069C9.88138 3.40991 8.55933 2.08789 6.92848 2.08789C5.29764 2.08789 3.97559 3.40991 3.97559 5.04069C3.97559 6.67148 5.29764 7.99349 6.92848 7.99349Z" fill="white" stroke="#171717" stroke-width="1.15881" stroke-linecap="round" stroke-linejoin="round"/>
<path d="M2.28232 17.0909C1.74567 17.0932 1.34006 16.3803 1.45946 15.63C2.00729 12.1911 4.24779 9.61523 6.92924 9.61523C9.59816 9.61523 11.8311 12.1682 12.3914 15.5843C12.5139 16.3334 12.1128 17.0493 11.5744 17.0516L2.28232 17.0909Z" fill="white" stroke="#171717" stroke-width="1.15881" stroke-linecap="round" stroke-linejoin="round"/>
</svg>
