<svg width="16" height="21" viewBox="0 0 16 21" fill="none" xmlns="http://www.w3.org/2000/svg">
<g clip-path="url(#clip0_1012_11003)">
<path d="M7.48256 0.748047H8.51481C8.65344 0.748047 8.78639 0.803118 8.88441 0.901145C8.98244 0.999172 9.03751 1.13213 9.03751 1.27076V5.42613H6.96289V1.27076C6.96289 1.13265 7.01754 1.00015 7.11491 0.902214C7.21228 0.804274 7.34445 0.748849 7.48256 0.748047Z" fill="white" stroke="#171717" stroke-width="0.849082" stroke-linecap="round" stroke-linejoin="round"/>
<path d="M4.12973 3.08691H11.8686C12.2261 3.08691 12.5689 3.22894 12.8217 3.48174C13.0745 3.73454 13.2166 4.07741 13.2166 4.43493V13.2522H2.78174V4.43493C2.78174 4.07741 2.92376 3.73454 3.17656 3.48174C3.42936 3.22894 3.77222 3.08691 4.12973 3.08691Z" fill="white" stroke="#171717" stroke-width="1.01202" stroke-linecap="round" stroke-linejoin="round"/>
<path d="M14.1003 13.2402H1.89847C1.40522 13.2402 1.00537 13.6401 1.00537 14.1333V14.4936C1.00537 14.9869 1.40522 15.3867 1.89847 15.3867H14.1003C14.5935 15.3867 14.9934 14.9869 14.9934 14.4936V14.1333C14.9934 13.6401 14.5935 13.2402 14.1003 13.2402Z" fill="white" stroke="#171717" stroke-width="1.01202" stroke-linecap="round" stroke-linejoin="round"/>
<path d="M6.96191 15.3867H9.03653V19.4824C9.03653 19.6081 8.98658 19.7287 8.89766 19.8176C8.80875 19.9066 8.68815 19.9565 8.56241 19.9565H7.43655C7.3108 19.9565 7.1902 19.9066 7.10129 19.8176C7.01237 19.7287 6.96242 19.6081 6.96242 19.4824V15.3867H6.96191Z" fill="white" stroke="#171717" stroke-width="1.01202" stroke-linecap="round" stroke-linejoin="round"/>
<path d="M4.89048 15.3867H2.81586L1.84635 19.9439C1.83301 20.0065 1.83382 20.0712 1.84873 20.1335C1.86364 20.1957 1.89226 20.2539 1.93252 20.3036C1.97277 20.3534 2.02364 20.3935 2.08139 20.4211C2.13915 20.4487 2.20233 20.463 2.26634 20.463H3.46354C3.56183 20.463 3.65712 20.4292 3.73348 20.3673C3.80983 20.3054 3.86262 20.2191 3.88302 20.123L4.89048 15.3867Z" fill="white" stroke="#171717" stroke-width="1.01202" stroke-linecap="round" stroke-linejoin="round"/>
<path d="M11.3418 15.3867H13.4164L14.3409 19.7339C14.3597 19.8218 14.3586 19.9128 14.3376 20.0003C14.3167 20.0877 14.2765 20.1694 14.2199 20.2393C14.1634 20.3092 14.0919 20.3655 14.0107 20.4043C13.9296 20.443 13.8408 20.4631 13.7509 20.463H12.9099C12.7717 20.463 12.6377 20.4156 12.5303 20.3287C12.4229 20.2417 12.3487 20.1205 12.3199 19.9854L11.3418 15.3867Z" fill="white" stroke="#171717" stroke-width="1.01202" stroke-linecap="round" stroke-linejoin="round"/>
<path d="M4.73828 6.43066C4.73828 6.43066 5.28224 8.09038 8.23781 7.30505C11.1934 6.51972 10.4642 8.21587 9.2316 9.49608C7.99897 10.7763 9.76696 10.839 9.76696 10.839" fill="white"/>
<path d="M4.73828 6.43066C4.73828 6.43066 5.28224 8.09038 8.23781 7.30505C11.1934 6.51972 10.4642 8.21587 9.2316 9.49608C7.99897 10.7763 9.76696 10.839 9.76696 10.839" stroke="#171717" stroke-width="1.01202" stroke-linecap="round" stroke-linejoin="round"/>
</g>
<defs>
<clipPath id="clip0_1012_11003">
<rect width="15" height="20.6448" fill="white" transform="translate(0.5 0.322266)"/>
</clipPath>
</defs>
</svg>
