<svg width="12" height="15" viewBox="0 0 12 15" fill="none" xmlns="http://www.w3.org/2000/svg">
<path d="M5.65898 7.5699C6.69359 7.5699 7.53231 6.73118 7.53231 5.69657C7.53231 4.66196 6.69359 3.82324 5.65898 3.82324C4.62436 3.82324 3.78564 4.66196 3.78564 5.69657C3.78564 6.73118 4.62436 7.5699 5.65898 7.5699Z" stroke="black" stroke-width="1.4" stroke-linecap="round" stroke-linejoin="round"/>
<path d="M10.3174 5.69623C10.3174 8.26886 8.23155 14.1125 5.65892 14.1125C3.08629 14.1125 1.00015 8.26886 1.00015 5.69623C0.995204 5.0813 1.11205 4.47148 1.34395 3.90193C1.57585 3.33238 1.91822 2.81437 2.3513 2.37779C2.78438 1.94121 3.29962 1.59469 3.86728 1.35822C4.43495 1.12175 5.04382 1 5.65877 1C6.27372 1 6.88259 1.12175 7.45026 1.35822C8.01792 1.59469 8.53316 1.94121 8.96624 2.37779C9.39933 2.81437 9.74169 3.33238 9.97359 3.90193C10.2055 4.47148 10.3223 5.0813 10.3174 5.69623Z" stroke="black" stroke-width="1.4" stroke-linecap="round" stroke-linejoin="round"/>
</svg>
