<svg width="18" height="18" viewBox="0 0 18 18" fill="none" xmlns="http://www.w3.org/2000/svg">
<g clip-path="url(#clip0_2230_12480)">
<g clip-path="url(#clip1_2230_12480)">
<path d="M5.74634 5.24805C5.74634 5.24805 5.09116 12.783 11.8606 14.0402" stroke="black" stroke-width="2.5598" stroke-linecap="round" stroke-linejoin="round"/>
<path d="M8.87435 5.17022C9.26407 7.1273 7.34111 7.85502 6.17406 7.63827C5.00701 7.42152 4.24479 6.25585 4.47157 5.03485C4.69835 3.81386 5.81037 3.13587 6.99531 3.21665C7.97458 3.28317 8.50779 3.32789 8.87435 5.17022Z" fill="black"/>
<path d="M13.5005 11.8622C14.8097 13.0564 13.7339 14.5953 12.7397 15.0567C12.5033 15.1666 12.2476 15.2287 11.9872 15.2397C11.7268 15.2507 11.4667 15.2102 11.222 15.1207C10.9772 15.0312 10.7524 14.8943 10.5606 14.7179C10.3687 14.5415 10.2135 14.329 10.1037 14.0926C9.64195 13.0984 10.1309 12.0251 11.068 11.4564C11.8426 10.9861 12.2686 10.7363 13.5005 11.8622Z" fill="black"/>
</g>
</g>
<defs>
<clipPath id="clip0_2230_12480">
<rect width="14.985" height="13.744" fill="white" transform="matrix(-0.966794 -0.255556 -0.255571 0.96679 18 3.8291)"/>
</clipPath>
<clipPath id="clip1_2230_12480">
<rect width="10.9735" height="11.0801" fill="white" transform="matrix(0.983188 0.182601 -0.182612 0.983184 4.8916 2.7793)"/>
</clipPath>
</defs>
</svg>
