<svg width="29" height="28" viewBox="0 0 29 28" fill="none" xmlns="http://www.w3.org/2000/svg">
<g clip-path="url(#clip0_762_7588)">
<path d="M13.121 2.24423C13.555 0.908325 15.445 0.908323 15.879 2.24422L17.8789 8.39929C18.0731 8.99673 18.6298 9.40122 19.258 9.40122H25.7298C27.1344 9.40122 27.7185 11.1987 26.5821 12.0243L21.3463 15.8283C20.8381 16.1976 20.6254 16.8521 20.8195 17.4495L22.8194 23.6046C23.2535 24.9405 21.7245 26.0513 20.5881 25.2257L15.3523 21.4217C14.8441 21.0524 14.1559 21.0524 13.6477 21.4217L8.4119 25.2257C7.27551 26.0513 5.74651 24.9405 6.18058 23.6046L8.18048 17.4495C8.3746 16.8521 8.16194 16.1976 7.65374 15.8283L2.41792 12.0243C1.28154 11.1987 1.86556 9.40122 3.27021 9.40122H9.74203C10.3702 9.40122 10.9269 8.99673 11.1211 8.39929L13.121 2.24423Z" fill="#DFDFDF"/>
</g>
<defs>
<clipPath id="clip0_762_7588">
<rect width="29" height="28" fill="white"/>
</clipPath>
</defs>
</svg>
