<svg width="17" height="17" viewBox="0 0 17 17" fill="none" xmlns="http://www.w3.org/2000/svg">
<path d="M7.74779 1.31508C7.98455 0.58639 9.01545 0.586389 9.25221 1.31508L10.6798 5.70881C10.7857 6.03468 11.0894 6.25532 11.432 6.25532H16.0519C16.8181 6.25532 17.1366 7.23576 16.5168 7.68612L12.7792 10.4016C12.502 10.603 12.386 10.96 12.4919 11.2859L13.9195 15.6796C14.1563 16.4083 13.3223 17.0142 12.7024 16.5639L8.96489 13.8484C8.68769 13.647 8.31232 13.647 8.03511 13.8484L4.29758 16.5639C3.67772 17.0142 2.8437 16.4083 3.08047 15.6796L4.50808 11.2859C4.61396 10.96 4.49797 10.603 4.22076 10.4016L0.483229 7.68612C-0.136629 7.23576 0.181935 6.25532 0.948122 6.25532H5.56796C5.91061 6.25532 6.21429 6.03468 6.32018 5.70881L7.74779 1.31508Z" fill="#FBAF17"/>
</svg>
