<svg width="18" height="21" viewBox="0 0 18 21" fill="none" xmlns="http://www.w3.org/2000/svg">
<path d="M6.85374 11.428C6.82938 11.428 6.80688 11.3999 6.80688 11.3657V10.1091C6.80688 9.72299 7.03273 9.40625 7.30918 9.40625H16.0342C16.3101 9.40625 16.536 9.72252 16.4952 10.1091C16.4952 10.1091 16.491 11.1671 16.4807 11.4276" stroke="#171717" stroke-width="1.15226" stroke-miterlimit="10"/>
<path d="M6.8795 11.4282H2.60954C2.33637 11.4282 2.09694 11.1939 2.0782 10.9081L1.5 2.20898H7.45582L7.37991 10.9081C7.3812 11.043 7.3295 11.1731 7.23594 11.2703C7.14237 11.3676 7.01439 11.4242 6.8795 11.4282Z" fill="white" stroke="#171717" stroke-width="1.15226" stroke-linecap="round" stroke-linejoin="round"/>
<path d="M16.4804 11.4297H3.85377C3.70465 11.4297 3.56163 11.4889 3.45619 11.5944C3.35074 11.6998 3.2915 11.8428 3.2915 11.9919V14.948C3.2915 15.0971 3.35074 15.2402 3.45619 15.3456C3.56163 15.451 3.70465 15.5103 3.85377 15.5103H10.7467C10.7467 15.5103 13.4948 15.4864 15.1338 14.219C16.4804 13.1783 16.4804 11.4297 16.4804 11.4297Z" fill="white" stroke="#171717" stroke-width="1.15226" stroke-miterlimit="10"/>
<path d="M5.56149 15.5088H9.35164C9.66089 15.5088 9.96077 15.6765 10.0156 15.8902L11.0089 19.6105C11.1251 20.0453 10.8379 20.4234 10.3633 20.4234H4.54988C4.07523 20.4234 3.788 20.0453 3.90421 19.6105L4.89755 15.8902C4.95424 15.6765 5.25224 15.5088 5.56149 15.5088Z" fill="white" stroke="#171717" stroke-width="1.15226" stroke-miterlimit="10"/>
<path d="M1.50049 2.20958V1.23546C1.50074 1.15928 1.53114 1.0863 1.58505 1.03248C1.63897 0.978651 1.712 0.948366 1.78818 0.948242H7.16908C7.24518 0.948489 7.3181 0.978829 7.37191 1.03264C7.42572 1.08645 7.45606 1.15936 7.45631 1.23546V2.20958H1.50049Z" fill="white" stroke="#171717" stroke-width="1.15226" stroke-linecap="round" stroke-linejoin="round"/>
</svg>
