<svg width="20" height="21" viewBox="0 0 20 21" fill="none" xmlns="http://www.w3.org/2000/svg">
<g clip-path="url(#clip0_5_7033)">
<path d="M5.53697 16.8564C5.36474 16.8564 5.19504 16.8149 5.04228 16.7354C4.88951 16.6558 4.75818 16.5406 4.65942 16.3995C4.56065 16.2584 4.49737 16.0956 4.47494 15.9248C4.45251 15.7541 4.47159 15.5804 4.53056 15.4186L5.68735 12.2421C5.75735 12.0511 5.88005 11.8838 6.04124 11.7597L15.1079 4.79199C15.6744 4.35569 16.3873 4.15461 17.0984 4.23058C17.8094 4.30655 18.4637 4.65372 18.9253 5.19987L19.3413 5.69129C19.5846 5.9785 19.7671 6.31211 19.8776 6.67192C19.9882 7.03173 20.0245 7.41024 19.9845 7.78451C19.9444 8.15879 19.8288 8.52103 19.6446 8.84929C19.4604 9.17755 19.2114 9.46499 18.9129 9.6942L9.97689 16.563C9.79521 16.7025 9.57357 16.7802 9.34451 16.7845L5.55711 16.856L5.53697 16.8564ZM17.6091 7.99587C17.6778 7.94318 17.735 7.8771 17.7774 7.80163C17.8197 7.72616 17.8463 7.64288 17.8555 7.55683C17.8647 7.47078 17.8564 7.38376 17.831 7.30103C17.8055 7.21831 17.7636 7.14161 17.7077 7.07558L17.2912 6.58459C17.1852 6.45898 17.0348 6.37913 16.8713 6.36165C16.7079 6.34417 16.544 6.39042 16.4138 6.49076L7.59391 13.2687L7.07978 14.6847L8.95292 14.6495L17.6091 7.99587Z" fill="#BFBFBF"/>
<path d="M16.2237 17.3308C16.2235 17.4712 16.1676 17.6058 16.0684 17.705C15.9691 17.8043 15.8346 17.8601 15.6942 17.8604H10.2149L9.97665 18.0433C9.79502 18.183 9.57338 18.2608 9.34427 18.2653L5.55686 18.3372H5.53673C5.36618 18.3373 5.1981 18.2966 5.04645 18.2186C4.8948 18.1405 4.76397 18.0274 4.66485 17.8887C4.65843 17.8797 4.65243 17.8702 4.646 17.8608H2.67175C2.53127 17.8607 2.39657 17.8048 2.29728 17.7054C2.19798 17.606 2.1422 17.4713 2.1422 17.3308V2.67175C2.14231 2.53134 2.19814 2.39671 2.29743 2.29743C2.39671 2.19814 2.53134 2.14231 2.67175 2.1422H16.2237V5.02903C16.9581 4.87265 17.7348 4.77196 18.3659 5.2004V1.96311C18.3652 1.4426 18.1581 0.943602 17.79 0.575582C17.4219 0.207562 16.9229 0.000566813 16.4024 0L2.67175 0C1.96337 0.000680593 1.28419 0.282386 0.783289 0.78329C0.282386 1.28419 0.000680593 1.96337 0 2.67175L0 17.3308C0.000793796 18.0392 0.282536 18.7183 0.783414 19.2192C1.28429 19.72 1.9634 20.0018 2.67175 20.0026H15.6963C16.4046 20.0017 17.0837 19.7199 17.5845 19.219C18.0854 18.7182 18.3672 18.0391 18.3681 17.3308V9.46552L16.2259 11.0842L16.2237 17.3308Z" fill="#BFBFBF"/>
<path d="M5.53709 18.3378H5.55723L9.34464 18.2662C9.57374 18.2618 9.79539 18.184 9.97701 18.0443L10.2152 17.8613H4.64551C4.65193 17.8708 4.65793 17.8802 4.66436 17.8892C4.76356 18.0281 4.89453 18.1413 5.04633 18.2193C5.19814 18.2973 5.3664 18.3379 5.53709 18.3378Z" fill="#BFBFBF"/>
</g>
<defs>
<clipPath id="clip0_5_7033">
<rect width="20" height="20.0026" fill="white"/>
</clipPath>
</defs>
</svg>
