<svg width="193" height="104" viewBox="0 0 193 104" fill="none" xmlns="http://www.w3.org/2000/svg">
<path d="M186 0H7C3.13401 0 0 3.13401 0 7V97C0 100.866 3.13401 104 7 104H186C189.866 104 193 100.866 193 97V7C193 3.13401 189.866 0 186 0Z" fill="white"/>
<path d="M84.035 16H22.5C20.0147 16 18 18.0147 18 20.5C18 22.9853 20.0147 25 22.5 25H84.035C86.5203 25 88.535 22.9853 88.535 20.5C88.535 18.0147 86.5203 16 84.035 16Z" fill="#E1E1E1"/>
<path d="M73.2359 31H21.7641C19.6852 31 18 33.0147 18 35.5C18 37.9853 19.6852 40 21.7641 40H73.2359C75.3148 40 77 37.9853 77 35.5C77 33.0147 75.3148 31 73.2359 31Z" fill="#E1E1E1"/>
<path d="M102.83 46H22.5C20.0147 46 18 48.0147 18 50.5C18 52.9853 20.0147 55 22.5 55H102.83C105.315 55 107.33 52.9853 107.33 50.5C107.33 48.0147 105.315 46 102.83 46Z" fill="#E1E1E1"/>
<path d="M93.0204 61H21.9796C19.7817 61 18 63.0147 18 65.5C18 67.9853 19.7817 70 21.9796 70H93.0204C95.2183 70 97 67.9853 97 65.5C97 63.0147 95.2183 61 93.0204 61Z" fill="#E1E1E1"/>
<path d="M135.5 83H85.5C83.0147 83 81 85.0147 81 87.5C81 89.9853 83.0147 92 85.5 92H135.5C137.985 92 140 89.9853 140 87.5C140 85.0147 137.985 83 135.5 83Z" fill="#E1E1E1"/>
<path d="M156.333 76H150.667C147.537 76 145 78.5584 145 81.7143V86.2857C145 89.4416 147.537 92 150.667 92H156.333C159.463 92 162 89.4416 162 86.2857V81.7143C162 78.5584 159.463 76 156.333 76Z" fill="#E1A8A8"/>
<path d="M168 14H137C131.477 14 127 18.4772 127 24V55C127 60.5228 131.477 65 137 65H168C173.523 65 178 60.5228 178 55V24C178 18.4772 173.523 14 168 14Z" fill="#E1E1E1"/>
<g clip-path="url(#clip0_2805_14221)">
<path d="M153 40C154.78 40 156.52 39.4722 158 38.4832C159.48 37.4943 160.634 36.0887 161.315 34.4442C161.996 32.7996 162.174 30.99 161.827 29.2442C161.48 27.4984 160.623 25.8947 159.364 24.636C158.105 23.3774 156.502 22.5202 154.756 22.1729C153.01 21.8257 151.2 22.0039 149.556 22.6851C147.911 23.3663 146.506 24.5198 145.517 25.9999C144.528 27.4799 144 29.22 144 31C144.002 33.3862 144.951 35.674 146.639 37.3613C148.326 39.0486 150.614 39.9976 153 40ZM153 25C154.187 25 155.347 25.3519 156.333 26.0112C157.32 26.6705 158.089 27.6075 158.543 28.7039C158.997 29.8003 159.116 31.0067 158.885 32.1705C158.653 33.3344 158.082 34.4035 157.243 35.2426C156.404 36.0818 155.334 36.6532 154.171 36.8847C153.007 37.1162 151.8 36.9974 150.704 36.5433C149.608 36.0892 148.67 35.3201 148.011 34.3334C147.352 33.3467 147 32.1867 147 31C147 29.4087 147.632 27.8826 148.757 26.7574C149.883 25.6321 151.409 25 153 25Z" fill="white"/>
<path d="M153 43C149.421 43.004 145.989 44.4276 143.458 46.9584C140.928 49.4893 139.504 52.9208 139.5 56.5C139.5 56.8978 139.658 57.2794 139.939 57.5607C140.221 57.842 140.602 58 141 58C141.398 58 141.779 57.842 142.061 57.5607C142.342 57.2794 142.5 56.8978 142.5 56.5C142.5 53.7152 143.606 51.0445 145.575 49.0754C147.545 47.1062 150.215 46 153 46C155.785 46 158.455 47.1062 160.425 49.0754C162.394 51.0445 163.5 53.7152 163.5 56.5C163.5 56.8978 163.658 57.2794 163.939 57.5607C164.221 57.842 164.602 58 165 58C165.398 58 165.779 57.842 166.061 57.5607C166.342 57.2794 166.5 56.8978 166.5 56.5C166.496 52.9208 165.072 49.4893 162.542 46.9584C160.011 44.4276 156.579 43.004 153 43Z" fill="white"/>
</g>
<defs>
<clipPath id="clip0_2805_14221">
<rect width="36" height="36" fill="white" transform="translate(135 22)"/>
</clipPath>
</defs>
</svg>
