<svg width="40" height="25" viewBox="0 0 40 25" fill="none" xmlns="http://www.w3.org/2000/svg">
<g clip-path="url(#clip0_792_8325)">
<path d="M38.9587 16.6667C38.6824 16.6667 38.4174 16.7765 38.2221 16.9718C38.0267 17.1672 37.917 17.4321 37.917 17.7084V19.7917C37.917 20.6205 37.5878 21.4154 37.0017 22.0015C36.4157 22.5875 35.6208 22.9167 34.792 22.9167H32.7087C32.4324 22.9167 32.1674 23.0265 31.9721 23.2218C31.7767 23.4172 31.667 23.6821 31.667 23.9584C31.667 24.2347 31.7767 24.4996 31.9721 24.695C32.1674 24.8903 32.4324 25.0001 32.7087 25.0001H34.792C36.1728 24.9984 37.4966 24.4492 38.473 23.4728C39.4494 22.4964 39.9987 21.1726 40.0003 19.7917V17.7084C40.0003 17.4321 39.8906 17.1672 39.6952 16.9718C39.4999 16.7765 39.2349 16.6667 38.9587 16.6667Z" fill="black"/>
<path d="M7.29167 0H5.20833C3.82751 0.00165402 2.50371 0.550919 1.52731 1.52731C0.550919 2.50371 0.00165402 3.82751 0 5.20833L0 7.29167C0 7.56793 0.109747 7.83289 0.305097 8.02824C0.500448 8.22359 0.7654 8.33333 1.04167 8.33333C1.31793 8.33333 1.58289 8.22359 1.77824 8.02824C1.97359 7.83289 2.08333 7.56793 2.08333 7.29167V5.20833C2.08333 4.37953 2.41257 3.58468 2.99863 2.99863C3.58468 2.41257 4.37953 2.08333 5.20833 2.08333H7.29167C7.56793 2.08333 7.83289 1.97359 8.02824 1.77824C8.22359 1.58289 8.33333 1.31793 8.33333 1.04167C8.33333 0.7654 8.22359 0.500448 8.02824 0.305097C7.83289 0.109747 7.56793 0 7.29167 0Z" fill="black"/>
<path d="M7.29167 22.9167H5.20833C4.37953 22.9167 3.58468 22.5875 2.99863 22.0015C2.41257 21.4154 2.08333 20.6205 2.08333 19.7917V17.7084C2.08333 17.4321 1.97359 17.1672 1.77824 16.9718C1.58289 16.7765 1.31793 16.6667 1.04167 16.6667C0.7654 16.6667 0.500448 16.7765 0.305097 16.9718C0.109747 17.1672 0 17.4321 0 17.7084L0 19.7917C0.00165402 21.1726 0.550919 22.4964 1.52731 23.4728C2.50371 24.4492 3.82751 24.9984 5.20833 25.0001H7.29167C7.56793 25.0001 7.83289 24.8903 8.02824 24.695C8.22359 24.4996 8.33333 24.2347 8.33333 23.9584C8.33333 23.6821 8.22359 23.4172 8.02824 23.2218C7.83289 23.0265 7.56793 22.9167 7.29167 22.9167Z" fill="black"/>
<path d="M34.792 0H32.7087C32.4324 0 32.1674 0.109747 31.9721 0.305097C31.7767 0.500448 31.667 0.7654 31.667 1.04167C31.667 1.31793 31.7767 1.58289 31.9721 1.77824C32.1674 1.97359 32.4324 2.08333 32.7087 2.08333H34.792C35.6208 2.08333 36.4157 2.41257 37.0017 2.99863C37.5878 3.58468 37.917 4.37953 37.917 5.20833V7.29167C37.917 7.56793 38.0267 7.83289 38.2221 8.02824C38.4174 8.22359 38.6824 8.33333 38.9587 8.33333C39.2349 8.33333 39.4999 8.22359 39.6952 8.02824C39.8906 7.83289 40.0003 7.56793 40.0003 7.29167V5.20833C39.9987 3.82751 39.4494 2.50371 38.473 1.52731C37.4966 0.550919 36.1728 0.00165402 34.792 0Z" fill="black"/>
<rect x="5" y="5" width="30" height="15" rx="5" fill="black"/>
</g>
<defs>
<clipPath id="clip0_792_8325">
<rect width="40" height="25" fill="white"/>
</clipPath>
</defs>
</svg>
