<?xml version="1.0" encoding="utf-8"?>
<!-- Generator: Adobe Illustrator 24.0.1, SVG Export Plug-In . SVG Version: 6.00 Build 0)  -->
<svg version="1.1" id="레이어_1" xmlns="http://www.w3.org/2000/svg" xmlns:xlink="http://www.w3.org/1999/xlink" x="0px"
	 y="0px" viewBox="0 0 44.1 21.9" style="enable-background:new 0 0 44.1 21.9;" xml:space="preserve">
<style type="text/css">
	.st0{fill:none;stroke:#000000;stroke-width:2;stroke-linecap:round;}
	.st1{clip-path:url(#SVGID_2_);}
</style>
<path class="st0" d="M1,20.8h42"/>
<path d="M10.6,6l4,4c0.4,0.4,0.4,1.1,0,1.5l0,0c-0.4,0.4-1.1,0.4-1.5,0l-4-4C8.6,7.1,8.6,6.4,9.1,6v0C9.5,5.5,10.2,5.5,10.6,6z"/>
<g>
	<defs>
		
			<rect id="SVGID_1_" x="17.6" y="-2.6" transform="matrix(0.7071 -0.7071 0.7071 0.7071 1.522 24.8194)" width="26.3" height="26.3"/>
	</defs>
	<clipPath id="SVGID_2_">
		<use xlink:href="#SVGID_1_"  style="overflow:visible;"/>
	</clipPath>
	<g class="st1">
		<path d="M40,10.2c-0.3,0-0.6-0.1-0.8-0.3s-0.3-0.5-0.3-0.8l0-4.4c0-0.2,0-0.4,0-0.6L26.1,16.8c-1,1-2.4,1.6-3.9,1.6
			c-1.5,0-2.8-0.6-3.9-1.6l-5.4-5.4c-0.2-0.2-0.3-0.5-0.3-0.8s0.1-0.6,0.3-0.8c0.2-0.2,0.5-0.3,0.8-0.3c0.3,0,0.6,0.1,0.8,0.3
			l5.4,5.4c0.6,0.6,1.5,1,2.3,1s1.7-0.3,2.3-1L37.3,2.5c-0.2,0-0.5,0-0.6,0l-4.4,0c-0.1,0-0.3,0-0.4-0.1c-0.1-0.1-0.3-0.1-0.4-0.2
			c-0.1-0.1-0.2-0.2-0.2-0.4c-0.1-0.1-0.1-0.3-0.1-0.4c0-0.1,0-0.3,0.1-0.4c0.1-0.1,0.1-0.3,0.3-0.4c0.1-0.1,0.2-0.2,0.4-0.2
			c0.1-0.1,0.3-0.1,0.4-0.1l4.4,0c0.3,0,0.8,0,1.3,0c0.8,0,1.6,0.4,2.1,1s0.9,1.3,1,2.1c0,0.5,0,0.9,0,1.2l0,4.4
			c0,0.3-0.1,0.6-0.3,0.8C40.5,10,40.3,10.2,40,10.2z"/>
	</g>
</g>
</svg>
