<svg width="71" height="71" viewBox="0 0 71 71" fill="none" xmlns="http://www.w3.org/2000/svg">
<g clip-path="url(#clip0_1920_11385)">
<path d="M72.3414 -2.56995H-1.34277V71.1143H72.3414V-2.56995Z" fill="#6DA6C4"/>
<path d="M46.5518 53.3568L67.1097 59.0304C69.4676 59.841 71.3097 61.6094 72.3413 63.8936V71.1146H-1.3429V63.8936C-0.385001 61.6094 1.53079 59.841 3.88868 59.0304L24.4466 53.3568V42.3778H46.5518V53.3568Z" fill="#D4B08C"/>
<mask id="mask0_1920_11385" style="mask-type:luminance" maskUnits="userSpaceOnUse" x="-2" y="42" width="75" height="30">
<path d="M46.5499 53.3561L67.1078 59.0298C69.4657 59.8404 71.3078 61.6088 72.3394 63.893V71.114H-1.34485V63.893C-0.386954 61.6088 1.52884 59.8404 3.88673 59.0298L24.4446 53.3561V42.3772H46.5499V53.3561Z" fill="white"/>
</mask>
<g mask="url(#mask0_1920_11385)">
<path d="M35.6456 56.3773H30.3403L26.8035 52.6931H-1.34387V71.1142H35.6456H72.6351V52.6931H44.4877L40.9509 56.3773H35.6456Z" fill="#70A619"/>
</g>
<path d="M35.4994 51.9564C34.3942 51.9564 32.9205 51.7353 31.9626 51.2932C30.7836 50.7775 26.6573 47.9038 25.2573 46.6511C23.4152 44.9564 22.4573 42.8932 22.1626 39.2827C21.8678 35.6722 20.7626 22.7775 20.7626 19.8301C20.7626 15.6301 24.5205 9.14587 35.4257 9.14587C46.331 9.14587 50.0889 15.6301 50.0889 19.8301C50.0889 22.7775 48.9836 35.6722 48.6889 39.2827C48.3942 42.8932 47.5099 44.9564 45.5942 46.6511C44.1942 47.9038 39.9942 50.7775 38.8889 51.2932C38.0784 51.7353 36.6047 51.9564 35.4994 51.9564Z" fill="#F2CEA5"/>
<mask id="mask1_1920_11385" style="mask-type:luminance" maskUnits="userSpaceOnUse" x="20" y="9" width="31" height="43">
<path d="M35.5015 51.9566C34.3962 51.9566 32.9225 51.7356 31.9646 51.2935C30.7857 50.7777 26.6594 47.904 25.2594 46.6514C23.4173 44.9566 22.4594 42.8935 22.1646 39.283C21.8699 35.6724 20.7646 22.7777 20.7646 19.8303C20.7646 15.6303 24.5225 9.14612 35.4278 9.14612C46.3331 9.14612 50.091 15.6303 50.091 19.8303C50.091 22.7777 48.9857 35.6724 48.691 39.283C48.3962 42.8935 47.512 44.9566 45.5962 46.6514C44.1962 47.904 39.9962 50.7777 38.891 51.2935C38.0804 51.7356 36.6068 51.9566 35.5015 51.9566Z" fill="white"/>
</mask>
<g mask="url(#mask1_1920_11385)">
<path d="M35.5015 51.9566C34.3962 51.9566 32.9225 51.7356 31.9646 51.2935C30.7857 50.7777 26.6594 47.904 25.2594 46.6514C23.4173 44.9566 22.4594 42.8935 22.1646 39.283C21.8699 35.6724 20.7646 22.7777 20.7646 19.8303C20.7646 15.6303 24.5225 9.14612 35.4278 9.14612C46.3331 9.14612 50.091 15.6303 50.091 19.8303C50.091 22.7777 48.9857 35.6724 48.691 39.283C48.3962 42.8935 47.512 44.9566 45.5962 46.6514C44.1962 47.904 39.9962 50.7777 38.891 51.2935C38.0804 51.7356 36.6068 51.9566 35.5015 51.9566Z" fill="#F2CEA5"/>
</g>
<mask id="mask2_1920_11385" style="mask-type:luminance" maskUnits="userSpaceOnUse" x="20" y="9" width="31" height="43">
<path d="M35.5015 51.9566C34.3962 51.9566 32.9225 51.7356 31.9646 51.2935C30.7857 50.7777 26.6594 47.904 25.2594 46.6514C23.4173 44.9566 22.4594 42.8935 22.1646 39.283C21.8699 35.6724 20.7646 22.7777 20.7646 19.8303C20.7646 15.6303 24.5225 9.14612 35.4278 9.14612C46.3331 9.14612 50.091 15.6303 50.091 19.8303C50.091 22.7777 48.9857 35.6724 48.691 39.283C48.3962 42.8935 47.512 44.9566 45.5962 46.6514C44.1962 47.904 39.9962 50.7777 38.891 51.2935C38.0804 51.7356 36.6068 51.9566 35.5015 51.9566Z" fill="white"/>
</mask>
<g mask="url(#mask2_1920_11385)">
<path d="M35.4268 41.641C33.8057 41.5673 34.3952 40.1673 31.9636 40.1673C29.532 40.1673 27.9847 41.42 27.3215 42.3778L21.4268 34.2726V54.1673H35.5004H49.5741V34.2726L43.6794 42.3778C42.9425 41.4936 41.4689 40.241 39.0373 40.1673C36.6057 40.0936 37.0478 41.5673 35.4268 41.641ZM35.4268 43.1147C33.6583 43.1147 34.3215 42.3778 32.4057 42.3778C29.8268 42.3778 28.7215 42.8936 28.7215 44.22C28.7215 45.5463 29.6057 47.3884 32.4057 47.5357C33.2162 47.4621 33.6583 47.241 33.8794 46.9463C33.8794 46.5042 34.1741 45.9884 35.4268 46.0621C36.6794 45.9884 36.9004 46.5042 36.9741 46.9463C37.1952 47.241 37.6373 47.5357 38.4478 47.5357C41.2478 47.3884 42.132 45.5463 42.132 44.22C42.132 42.8936 41.0268 42.3778 38.4478 42.3778C36.6057 42.3778 37.1952 43.1147 35.4268 43.1147Z" fill="white"/>
</g>
<mask id="mask3_1920_11385" style="mask-type:luminance" maskUnits="userSpaceOnUse" x="20" y="9" width="31" height="43">
<path d="M35.5015 51.9566C34.3962 51.9566 32.9225 51.7356 31.9646 51.2935C30.7857 50.7777 26.6594 47.904 25.2594 46.6514C23.4173 44.9566 22.4594 42.8935 22.1646 39.283C21.8699 35.6724 20.7646 22.7777 20.7646 19.8303C20.7646 15.6303 24.5225 9.14612 35.4278 9.14612C46.3331 9.14612 50.091 15.6303 50.091 19.8303C50.091 22.7777 48.9857 35.6724 48.691 39.283C48.3962 42.8935 47.512 44.9566 45.5962 46.6514C44.1962 47.904 39.9962 50.7777 38.891 51.2935C38.0804 51.7356 36.6068 51.9566 35.5015 51.9566Z" fill="white"/>
</mask>
<g mask="url(#mask3_1920_11385)">
<path d="M33.4379 29.2619C33.2168 29.4093 32.8484 29.3356 32.701 29.1145C32.1852 28.5251 31.08 27.6408 28.9431 27.6408C26.8063 27.6408 25.7747 28.5251 25.4063 29.0408C25.2589 29.2619 24.9642 29.3356 24.6695 29.2619L24.4484 29.1882C24.08 29.0408 23.9326 28.5251 24.1537 28.2303C24.7431 27.4198 26.0695 26.2408 28.8695 26.2408C31.5221 26.2408 33.0695 27.3461 33.7326 28.2303C33.9537 28.5251 33.88 28.9672 33.5116 29.1882L33.4379 29.2619Z" fill="#CC9872"/>
</g>
<mask id="mask4_1920_11385" style="mask-type:luminance" maskUnits="userSpaceOnUse" x="20" y="9" width="31" height="43">
<path d="M35.5015 51.9566C34.3962 51.9566 32.9225 51.7356 31.9646 51.2935C30.7857 50.7777 26.6594 47.904 25.2594 46.6514C23.4173 44.9566 22.4594 42.8935 22.1646 39.283C21.8699 35.6724 20.7646 22.7777 20.7646 19.8303C20.7646 15.6303 24.5225 9.14612 35.4278 9.14612C46.3331 9.14612 50.091 15.6303 50.091 19.8303C50.091 22.7777 48.9857 35.6724 48.691 39.283C48.3962 42.8935 47.512 44.9566 45.5962 46.6514C44.1962 47.904 39.9962 50.7777 38.891 51.2935C38.0804 51.7356 36.6068 51.9566 35.5015 51.9566Z" fill="white"/>
</mask>
<g mask="url(#mask4_1920_11385)">
<path d="M36.974 37.1459C36.6056 37.1459 36.2372 36.8512 36.2372 36.4091V30.5143C36.2372 28.6722 38.0793 26.1669 42.1319 26.0933C44.7109 26.0933 46.1109 27.1248 46.774 27.9354C47.0688 28.3038 46.9214 28.8933 46.4793 29.0406C46.1846 29.1143 45.8898 29.0406 45.6688 28.8196C45.2267 28.3775 44.1951 27.6406 42.1319 27.5669C39.1109 27.5669 37.7109 29.3354 37.7109 30.5143V36.4827C37.7109 36.8512 37.4161 37.1459 36.974 37.1459Z" fill="#BB8660"/>
</g>
<path d="M24.5194 52.2515L25.772 50.1884L35.2773 54.5357L44.9299 50.9252L46.551 52.5463V57.3357C46.551 57.3357 38.5931 65.1463 35.4984 65.2199C32.4036 65.2199 24.5194 56.7463 24.5194 56.7463V52.2515Z" fill="#D4B08C"/>
<path d="M46.5524 53.3568C46.4787 55.1252 46.5524 55.1252 46.5524 56.5252C46.5524 66.9147 40.2892 71.041 40.2892 71.041H38.9629H35.7208H32.5524H31.2261C31.2261 71.041 24.4471 66.1042 24.4471 57.2621C24.4471 55.7884 24.4471 54.02 24.4471 53.3568C25.184 54.0937 26.4366 59.4726 35.7945 59.4726C45.1524 59.4726 45.8156 54.0937 46.5524 53.3568Z" fill="white"/>
<path d="M29.6783 19.5353H41.4678C41.8362 19.5353 42.131 19.83 42.131 20.1984V20.2721C42.131 20.6405 41.8362 20.9353 41.4678 20.9353H29.6783C29.3099 20.9353 29.0152 20.6405 29.0152 20.2721V20.1984C28.9415 19.83 29.2362 19.5353 29.6783 19.5353Z" fill="#E1BC90"/>
<path d="M32.6245 22.4829H38.4456C38.8877 22.4829 39.1824 22.7776 39.1824 23.2198C39.1824 23.6619 38.8877 23.9566 38.4456 23.9566H32.6245C32.1824 23.9566 31.8877 23.6619 31.8877 23.2198C31.8877 22.7776 32.1824 22.4829 32.6245 22.4829Z" fill="#E1BC90"/>
<path d="M44.7832 11.5779C44.7832 11.5779 47.3622 14.82 47.7306 19.6095C47.8779 21.7463 46.9937 23.2937 48.7622 27.42C49.5727 29.2621 49.5727 29.6305 49.5727 30.3674C51.5622 24.1042 52.8148 15.2621 44.7832 11.5779ZM26.2148 11.5779C26.2148 11.5779 23.6358 14.82 23.2674 19.6095C23.1201 21.7463 24.0043 23.2937 22.2358 27.42C21.4253 29.2621 21.4253 29.6305 21.4253 30.3674C19.4358 24.1042 18.1832 15.2621 26.2148 11.5779Z" fill="white"/>
<path d="M26.7324 31.3244C26.7324 31.3244 28.4272 29.4086 31.4482 31.0297" stroke="#4C4C4C" stroke-width="1.10526" stroke-miterlimit="10" stroke-linecap="round"/>
<path d="M44.3425 31.3244C44.3425 31.3244 42.6478 29.4086 39.6267 31.0297" stroke="#4C4C4C" stroke-width="1.10526" stroke-miterlimit="10" stroke-linecap="round"/>
<path d="M31.3733 43.9982C32.1101 45.1034 33.4364 45.6929 35.0575 45.8403C36.8259 45.914 38.668 45.1771 39.6259 43.9982" fill="#A3705F"/>
</g>
<defs>
<clipPath id="clip0_1920_11385">
<rect x="0.5" y="0.5" width="70" height="70" rx="21" fill="white"/>
</clipPath>
</defs>
</svg>
