<svg width="71" height="71" viewBox="0 0 71 71" fill="none" xmlns="http://www.w3.org/2000/svg">
<g clip-path="url(#clip0_2202_11749)">
<path d="M72.3416 -0.11377H-1.34265V73.5704H72.3416V-0.11377Z" fill="#6DA6C4"/>
<path d="M44.1213 52.8653C44.1213 55.8127 47.216 56.6969 48.8371 57.139C53.9213 58.6127 64.016 61.4864 64.016 61.4864C66.1529 62.2969 67.7739 64.0653 68.7318 66.3495V73.5706H2.26868V66.3495C3.15289 64.0653 4.84762 62.2969 6.98447 61.4864C6.98447 61.4864 17.0792 58.6127 22.1634 57.139C23.7845 56.6969 26.8792 55.8127 26.8792 52.8653C26.8792 49.918 26.8792 44.8337 26.8792 44.8337H44.195C44.1213 44.8337 44.1213 49.918 44.1213 52.8653Z" fill="#E6C19C"/>
<mask id="mask0_2202_11749" style="mask-type:luminance" maskUnits="userSpaceOnUse" x="-2" y="44" width="75" height="30">
<path d="M45.0774 52.8646C45.0774 55.812 48.5406 56.6962 50.309 57.1383C55.909 58.612 67.109 61.4856 67.109 61.4856C69.4669 62.2962 71.309 64.0646 72.3406 66.3488V73.5698H-1.34363V66.3488C-0.385733 64.0646 1.53006 62.2962 3.88795 61.4856C3.88795 61.4856 15.0879 58.612 20.688 57.1383C22.4564 56.6962 25.9195 55.812 25.9195 52.8646C25.9195 49.9172 25.9195 44.833 25.9195 44.833H45.0774C45.0774 44.833 45.0774 49.9172 45.0774 52.8646Z" fill="white"/>
</mask>
<g mask="url(#mask0_2202_11749)">
<path d="M1.16223 42.6225H70.4991V75.0435H1.16223V42.6225ZM35.8675 66.5699C44.1938 66.5699 50.2359 55.6646 50.2359 55.6646C50.2359 55.6646 38.5201 31.4962 35.8675 43.3593C29.9728 35.9909 21.4254 55.6646 21.4254 55.6646C21.4254 55.6646 27.4675 66.5699 35.8675 66.5699Z" fill="#E7A145"/>
</g>
<mask id="mask1_2202_11749" style="mask-type:luminance" maskUnits="userSpaceOnUse" x="-2" y="44" width="75" height="30">
<path d="M45.0774 52.8646C45.0774 55.812 48.5406 56.6962 50.309 57.1383C55.909 58.612 67.109 61.4856 67.109 61.4856C69.4669 62.2962 71.309 64.0646 72.3406 66.3488V73.5698H-1.34363V66.3488C-0.385733 64.0646 1.53006 62.2962 3.88795 61.4856C3.88795 61.4856 15.0879 58.612 20.688 57.1383C22.4564 56.6962 25.9195 55.812 25.9195 52.8646C25.9195 49.9172 25.9195 44.833 25.9195 44.833H45.0774C45.0774 44.833 45.0774 49.9172 45.0774 52.8646Z" fill="white"/>
</mask>
<g mask="url(#mask1_2202_11749)">
<path d="M35.6461 7.99121C35.7198 7.99121 35.7198 7.99121 35.7934 7.99121C37.9303 7.99121 41.0987 8.13858 43.1619 9.4649C45.2987 10.8649 47.8777 13.5912 48.6882 18.3807C50.2355 28.4754 47.2882 44.4649 44.5619 49.6228C41.9829 54.5596 38.225 56.4017 35.7934 56.5491H35.7198C35.6461 56.5491 35.6461 56.5491 35.5724 56.5491C35.4987 56.5491 35.4987 56.5491 35.425 56.5491H35.3513C32.9198 56.4017 29.1619 54.5596 26.5829 49.6228C23.8566 44.4649 20.9092 28.4754 22.5303 18.3807C23.3408 13.5912 25.9198 10.8649 28.0566 9.4649C30.1198 8.13858 33.2882 7.99121 35.425 7.99121C35.5724 7.99121 35.5724 7.99121 35.6461 7.99121Z" fill="#CDA985"/>
</g>
<path d="M36.2365 14.4019C50.3102 14.4019 49.647 21.7703 49.7207 22.6545C49.8681 24.5703 51.047 26.7071 50.8997 28.7703C50.3839 36.2861 47.3628 45.3492 45.1523 48.5913C42.2049 52.9387 37.7102 53.6755 35.7207 53.6755C33.7313 53.6755 29.0155 52.9387 26.0681 48.5913C23.2681 44.465 19.7313 31.4966 20.5418 22.6545C20.5418 21.7703 22.1628 14.4019 36.2365 14.4019Z" fill="#F2CEA5"/>
<path d="M32.1103 45.5704C31.9629 45.5704 31.7419 45.7915 31.8155 45.9389C32.5524 47.0441 33.7313 47.6336 35.3524 47.781C37.0471 47.8546 38.8155 47.1178 39.6261 45.9389C39.6997 45.7915 39.6261 45.5704 39.4787 45.5704H32.1103Z" fill="#A3705F"/>
<path d="M38.1531 31.3494L38.0794 31.2757C37.711 31.0546 37.711 30.5388 38.0057 30.2441C39.111 29.2125 40.732 28.623 42.6478 28.623H42.7215C44.2689 28.623 45.3741 28.9178 45.9636 29.2125C46.4057 29.3599 46.5531 29.9494 46.1846 30.3178L46.111 30.3915C45.8899 30.6125 45.5952 30.6862 45.3004 30.5388C44.8583 30.3178 43.9004 30.023 42.5741 30.023C41.6162 30.0967 40.0689 30.3178 38.9636 31.3494C38.7425 31.5704 38.3741 31.5704 38.1531 31.3494Z" fill="#BB8660"/>
<path d="M32.9203 30.6123C32.6992 30.7597 32.3308 30.7597 32.1097 30.5386C31.0045 29.507 29.5308 29.2123 28.3518 29.286C26.9518 29.286 26.0676 29.5807 25.6255 29.8018C25.3308 29.9491 25.036 29.8755 24.8887 29.6544L24.815 29.507C24.5203 29.2123 24.6676 28.6965 25.036 28.4755C25.6992 28.1807 26.7308 27.886 28.3518 27.886C30.2676 27.886 31.9624 28.4018 33.1413 29.507C33.3624 29.8755 33.2887 30.3912 32.9203 30.6123Z" fill="#CC9872"/>
<path d="M36.3831 41.2963C35.3515 39.3805 35.0568 36.5068 35.6463 33.4121L37.1199 33.7068C36.6042 36.4332 36.7515 39.0121 37.7094 40.5595C37.8568 40.8542 37.7831 41.2226 37.562 41.4437L37.4884 41.5174C37.0463 41.7384 36.6042 41.6647 36.3831 41.2963Z" fill="#BB8660"/>
<path d="M24.5208 34.1494C24.6682 34.0757 24.9629 33.9284 25.2576 33.781C26.2155 33.4126 27.3945 33.1178 28.9419 33.1178C30.4892 33.1178 31.7419 33.3389 32.6261 33.781C32.9945 33.9284 33.2155 34.0757 33.3629 34.2231C33.3629 34.8863 33.2892 35.6968 32.9945 36.5073C32.405 38.0547 31.1524 38.9389 28.9419 38.9389C26.7313 38.9389 25.4787 38.0547 24.8892 36.5073C24.5945 35.6968 24.5208 34.8126 24.5208 34.1494ZM34.9103 34.5179H36.3103C36.7524 34.5179 37.0471 34.2231 37.0471 33.781C37.0471 33.3389 36.7524 33.0442 36.3103 33.0442H34.0998L34.6155 33.2652C34.3945 33.0442 33.9524 32.7494 33.2155 32.381C32.1103 31.8652 30.6366 31.6442 28.9419 31.6442C27.2471 31.6442 25.7734 31.9389 24.7419 32.381C24.005 32.6757 23.5629 32.9705 23.3419 33.2652L23.8576 33.0442H21.6471C21.205 33.0442 20.9103 33.3389 20.9103 33.781C20.9103 34.2231 21.205 34.5179 21.6471 34.5179H23.0471C23.0471 35.3284 23.1945 36.1389 23.5629 36.9494C24.3734 39.0126 26.1419 40.3389 29.0155 40.3389C31.8155 40.3389 33.6576 39.0863 34.4682 36.9494C34.7629 36.1389 34.9103 35.2547 34.9103 34.5179ZM37.784 34.1494C37.9313 34.0757 38.2261 33.9284 38.5208 33.781C39.4787 33.4126 40.6576 33.1178 42.205 33.1178C43.7524 33.1178 45.005 33.3389 45.8892 33.781C46.2576 33.9284 46.4787 34.0757 46.6261 34.2231C46.6261 34.8863 46.5524 35.6968 46.2576 36.5073C45.6682 38.0547 44.4155 38.9389 42.205 38.9389C39.9945 38.9389 38.7419 38.0547 38.1524 36.5073C37.8576 35.6968 37.784 34.8126 37.784 34.1494ZM49.5734 34.5179C50.0155 34.5179 50.3103 34.2231 50.3103 33.781C50.3103 33.3389 50.0155 33.0442 49.5734 33.0442H47.3629L47.8787 33.2652C47.6576 33.0442 47.2155 32.7494 46.4787 32.381C45.3734 31.8652 43.8997 31.6442 42.205 31.6442C40.5103 31.6442 39.0366 31.9389 38.005 32.381C37.2682 32.6757 36.8261 32.9705 36.605 33.2652L37.1208 33.0442H34.9103C34.4682 33.0442 34.1734 33.3389 34.1734 33.781C34.1734 34.2231 34.4682 34.5179 34.9103 34.5179H36.3103C36.3103 35.3284 36.4576 36.1389 36.8261 36.9494C37.6366 39.0126 39.405 40.3389 42.2787 40.3389C45.0787 40.3389 46.9208 39.0863 47.7313 36.9494C48.0998 36.1389 48.1734 35.2547 48.2471 34.4442L49.5734 34.5179Z" fill="#B7B7B7"/>
<path d="M33.2894 21.9917C37.3589 21.9917 40.6579 18.6928 40.6579 14.6233C40.6579 10.5538 37.3589 7.25488 33.2894 7.25488C29.22 7.25488 25.921 10.5538 25.921 14.6233C25.921 18.6928 29.22 21.9917 33.2894 21.9917Z" fill="#DDE4EA"/>
<path d="M20.9103 32.7493C20.9103 32.7493 13.984 18.7493 29.8998 12.6335C45.8155 6.51776 49.3524 17.7914 50.3103 20.7388C51.4155 24.423 50.6787 30.5388 50.6787 30.5388C50.6787 30.5388 46.6998 19.0441 39.9945 19.0441C38.5208 21.402 36.1629 24.202 28.3524 24.202C20.5419 24.202 20.9103 32.7493 20.9103 32.7493Z" fill="white"/>
<path d="M35.869 66.4965C41.9848 66.4965 46.7743 60.7492 48.9848 57.6544C36.6059 64.5071 26.8796 59.2018 22.6796 57.6544C24.9638 60.8228 30.048 66.4965 35.869 66.4965Z" fill="white"/>
<path d="M26.9521 35.3278C26.9521 35.3278 28.6469 33.412 31.6679 35.0331" stroke="#4C4C4C" stroke-width="1.10526" stroke-miterlimit="10" stroke-linecap="round"/>
<path d="M44.5632 35.3277C44.5632 35.3277 42.8685 33.4119 39.8474 35.033" stroke="#4C4C4C" stroke-width="1.10526" stroke-miterlimit="10" stroke-linecap="round"/>
</g>
<defs>
<clipPath id="clip0_2202_11749">
<rect x="0.5" y="0.5" width="70" height="70" rx="21" fill="white"/>
</clipPath>
</defs>
</svg>
