<svg width="42" height="45" viewBox="0 0 42 45" fill="none" xmlns="http://www.w3.org/2000/svg">
<rect y="2" width="42" height="42" rx="21" fill="#F19C9C"/>
<path d="M20.7309 10.0352C19.3938 10.2636 18.1667 11.1496 17.5139 12.3585C17.3094 12.7365 17.097 13.3901 17.0341 13.8115C16.9633 14.3155 17.0066 15.1621 17.1285 15.6346C17.5336 17.19 18.8038 18.4618 20.3415 18.8556C22.7327 19.466 25.1513 18.0878 25.8238 15.733C26.5553 13.1814 24.935 10.5471 22.3355 10.0549C22.0051 9.99192 21.0573 9.98011 20.7309 10.0352ZM22.4259 10.8031C23.7198 11.1575 24.7187 12.1104 25.112 13.3665C25.5171 14.6541 25.1985 16.0677 24.2822 17.0482C23.9322 17.4223 23.6057 17.6743 23.2125 17.8712C22.6225 18.1626 22.127 18.2807 21.4624 18.2768C20.0033 18.2728 18.7055 17.4459 18.0723 16.115C17.7931 15.5243 17.7341 15.2369 17.7302 14.5045C17.7263 13.965 17.7381 13.8272 17.8167 13.5437C17.9976 12.8822 18.2965 12.3545 18.7645 11.8702C19.3387 11.2795 19.9325 10.9448 20.7388 10.7637C21.0888 10.685 22.0759 10.7086 22.4259 10.8031Z" fill="white"/>
<path d="M18.4205 20.097C17.4229 20.3581 16.7206 20.7398 16.102 21.3584C15.3798 22.0775 15.2162 22.4029 14.5139 24.4918C13.7796 26.6812 13.4205 27.6212 12.9457 28.6255L12.7062 29.1357H12.5147C11.9042 29.1357 11.2298 29.8628 11.0502 30.7184C10.9624 31.1322 10.9944 32.2771 11.1101 32.948C11.3934 34.5789 11.956 35.1132 13.2489 34.9806C13.7956 34.9244 14.1029 34.8441 14.446 34.6633C14.9528 34.3941 15.304 33.9281 15.4476 33.3175L15.5155 33.0484H21.509H27.5026L27.5505 33.2854C27.6183 33.6349 27.8537 34.0768 28.1011 34.3258C28.3525 34.5829 28.8354 34.824 29.2703 34.9204C29.4379 34.9565 29.7851 34.9847 30.0684 34.9887C30.5393 34.9927 30.5832 34.9887 30.8146 34.8802C31.5967 34.5187 31.9958 33.4139 31.9997 31.5821C32.0037 30.7747 31.9638 30.5497 31.7324 30.0797C31.4451 29.4852 30.6949 28.991 30.3477 29.1678L30.224 29.2281L29.9646 28.6777C29.3701 27.4404 28.8833 26.1429 28.2927 24.2307C27.8817 22.909 27.7181 22.4993 27.4068 22.0333C27.0197 21.4548 26.3294 20.8764 25.6111 20.5309C25.1921 20.33 24.3941 20.0689 24.1227 20.0448L23.8993 20.0247L22.8458 20.8764C22.2632 21.3504 21.7125 21.7923 21.6247 21.8686L21.4611 22.0012L20.288 21.0491C19.6455 20.5269 19.0709 20.0769 19.015 20.0448C18.8873 19.9765 18.8674 19.9805 18.4205 20.097ZM20.0645 21.8164C21.3694 22.8729 21.4452 22.9171 21.6567 22.7765C21.7165 22.7363 22.2991 22.2703 22.9456 21.7441L24.1307 20.784L24.434 20.8723C25.1403 21.0812 25.7468 21.3906 26.2177 21.7842C26.489 22.0132 26.8561 22.4872 27.0317 22.8408C27.1195 23.0135 27.3629 23.7165 27.5944 24.4516C28.2488 26.5607 28.7595 27.8823 29.4339 29.2401L29.7492 29.8748H29.5297C29.41 29.8748 29.2983 29.8748 29.2823 29.8788C29.2703 29.8829 28.9431 29.3526 28.564 28.7058C28.1809 28.055 27.8418 27.5007 27.8058 27.4726C27.7659 27.4444 27.6223 27.4243 27.4707 27.4243C27.323 27.4243 27.1913 27.4123 27.1833 27.3922C27.1754 27.3761 27.1833 27.1592 27.2033 26.9061C27.2352 26.4723 27.2352 26.4401 27.1474 26.2634C26.9479 25.8576 26.2616 25.6166 25.3198 25.6166C24.3941 25.6206 23.7037 25.8697 23.4962 26.2714C23.4444 26.3759 23.4364 26.4803 23.4603 26.9101L23.4882 27.4243H19.3382C15.4476 27.4243 15.1882 27.4284 15.1084 27.4926C15.0645 27.5328 14.7254 28.0791 14.3543 28.7098L13.6799 29.8547L13.4125 29.8668C13.2609 29.8748 13.1492 29.8628 13.1571 29.8467C13.1651 29.8306 13.3168 29.5173 13.4963 29.1517C14.063 27.9948 14.4301 27.0427 15.2082 24.7248C15.4795 23.9133 15.7509 23.134 15.8147 22.9934C16.2058 22.1257 16.8961 21.4629 17.8059 21.0772C18.1731 20.9205 18.7477 20.7558 18.7956 20.792C18.8195 20.8081 19.3901 21.27 20.0645 21.8164ZM26.1578 26.4401C26.5329 26.5566 26.513 26.3879 26.3773 28.3282L26.2576 30.0435L26.1578 30.0958C26.0142 30.1721 25.6271 30.2364 25.3119 30.2364C25.0485 30.2364 24.5577 30.148 24.4539 30.0837C24.418 30.0636 24.3661 29.5293 24.2823 28.3684C24.2185 27.4404 24.1626 26.6611 24.1626 26.633C24.1626 26.5607 24.3502 26.4723 24.6654 26.404C25.0245 26.3236 25.8426 26.3437 26.1578 26.4401ZM23.6 28.9388C23.6838 30.2203 23.6997 30.3368 23.8155 30.4894C24.2464 31.0599 26.1738 31.1242 26.7484 30.5859C26.9359 30.4131 26.9559 30.3127 27.0357 29.2401C27.0796 28.6737 27.1155 28.1916 27.1155 28.1756C27.1155 28.1555 27.1794 28.1474 27.2592 28.1555C27.3988 28.1675 27.4068 28.1756 27.9655 29.1276L28.5281 30.0877L28.3685 30.2123C27.9136 30.5738 27.6582 31.0639 27.5545 31.7669C27.5305 31.9316 27.5026 32.1244 27.4906 32.1967L27.4707 32.3253L21.497 32.3173L15.5234 32.3052L15.4955 32.0079C15.4077 31.1523 15.0725 30.5055 14.5059 30.1118L14.4141 30.0516L14.9688 29.0995L15.5234 28.1515L19.5378 28.1474H23.5481L23.6 28.9388ZM12.3152 30.2163C12.5227 30.4493 12.8219 30.5658 13.3287 30.5979C13.9632 30.6421 14.0869 30.6863 14.3343 30.9394C14.5059 31.1161 14.5578 31.2085 14.6376 31.4696C14.8371 32.1043 14.857 32.8395 14.6895 33.3296C14.5059 33.8719 14.043 34.1611 13.217 34.2535C12.5825 34.3258 12.3351 34.2294 12.1236 33.8237C11.8922 33.3939 11.7605 32.6909 11.7246 31.7629C11.7007 31.088 11.7485 30.7626 11.9161 30.4252C11.9919 30.2765 12.1396 30.0757 12.1795 30.0757C12.1875 30.0757 12.2473 30.14 12.3152 30.2163ZM30.9862 30.2444C31.1498 30.4694 31.2655 30.8671 31.2934 31.2848C31.3413 31.9838 31.1538 33.2653 30.9343 33.7434C30.7228 34.2053 30.4475 34.3299 29.801 34.2535C28.9192 34.1531 28.4762 33.8598 28.2967 33.2492C28.1011 32.5904 28.2288 31.546 28.568 31.0518C28.7755 30.7465 29.0109 30.6461 29.6295 30.6019C30.0724 30.5738 30.1562 30.5537 30.3717 30.4453C30.5073 30.377 30.659 30.2645 30.7108 30.2002C30.7627 30.1359 30.8186 30.0797 30.8345 30.0797C30.8545 30.0757 30.9183 30.152 30.9862 30.2444Z" fill="white"/>
<path d="M17.1093 24.1395C16.9608 24.3292 16.965 24.6585 17.1135 24.8426C17.2153 24.971 17.2493 24.9765 17.8856 24.9933C18.6451 25.0156 18.7935 24.9877 18.9123 24.8259C19.0354 24.6529 19.0269 24.279 18.8996 24.1228C18.8063 24.0056 18.7638 24 18.0044 24C17.2196 24 17.2111 24 17.1093 24.1395Z" fill="white"/>
<path d="M18.8122 28.0282C17.1171 28.2129 16 29.0038 16 30.0221C16 30.9929 17.0124 31.727 18.6764 31.9638C19.1845 32.0349 20.3094 31.997 20.7826 31.888C21.8726 31.6465 22.66 31.135 22.9121 30.5004C23.1021 30.0126 22.978 29.4253 22.5979 29.0133C22.3729 28.7717 21.8144 28.4402 21.3838 28.2934C20.7011 28.0566 19.6073 27.9429 18.8122 28.0282ZM20.4413 28.9328C21.2907 29.0749 22.0549 29.4537 22.2449 29.8373C22.3341 30.0221 22.3109 30.1168 22.113 30.3394C21.3799 31.1634 19.0682 31.4144 17.6291 30.8224C17.1093 30.6093 16.6982 30.2541 16.6982 30.0173C16.6982 29.9652 16.7603 29.8421 16.8339 29.7426C17.3382 29.0606 18.9867 28.6912 20.4413 28.9328Z" fill="white"/>
</svg>
