<svg width="42" height="45" viewBox="0 0 42 45" fill="none" xmlns="http://www.w3.org/2000/svg">
<rect y="2" width="42" height="42" rx="21" fill="#FFD070"/>
<g clip-path="url(#clip0_2802_13746)">
<path d="M18.5408 10.0892C18.3798 10.1977 18.3031 10.3528 18.3338 10.504C18.3645 10.6397 18.5178 10.7754 18.6481 10.7754C18.8436 10.7754 19.1197 10.5467 19.1197 10.3838C19.1197 10.1939 18.9318 10 18.744 10C18.7056 10 18.6136 10.0388 18.5408 10.0892Z" fill="white"/>
<path d="M17.2754 11.3453C16.6543 12.0238 16.4933 12.9117 16.8575 13.6445C16.9802 13.8888 17.2485 14.2067 17.4479 14.3463C17.5246 14.3967 17.5821 14.451 17.5744 14.4626C17.5706 14.4781 17.4019 14.5983 17.2025 14.734C16.7425 15.0403 16.1943 15.5909 15.9835 15.9515C15.489 16.8044 15.5158 17.7389 16.0563 18.4639C16.225 18.6888 16.3898 18.84 16.8729 19.2083L16.9725 19.2859L16.8384 19.6736C16.7655 19.8868 16.708 20.0962 16.7119 20.135C16.7195 20.197 16.7847 20.2242 17.03 20.2784C17.1987 20.3172 17.3444 20.3366 17.3559 20.3211C17.3674 20.3056 17.4249 20.1427 17.4862 19.9527C17.5437 19.7666 17.6012 19.6154 17.6166 19.6154C17.6319 19.6154 17.7737 19.6697 17.9309 19.7356C18.5098 19.976 19.5027 20.2086 20.4035 20.3211C20.9671 20.387 22.9796 20.387 23.547 20.3172C24.0914 20.2513 24.8964 20.104 25.2223 20.007C25.3641 19.9644 25.4868 19.945 25.4944 19.9566C25.5021 19.9721 25.5328 20.0652 25.5596 20.166C25.5864 20.2707 25.6171 20.3521 25.6324 20.3521C25.6938 20.3482 26.2573 20.2048 26.2726 20.1893C26.2803 20.1776 26.2573 20.0613 26.2151 19.9295L26.1423 19.693L26.4375 19.5379C27.0508 19.2161 27.461 18.7624 27.553 18.3088C27.7294 17.4558 27.0432 16.8548 25.7206 16.7036C25.2989 16.6571 25.1648 16.6765 25.0612 16.8122C24.9769 16.9246 24.9654 17.0448 25.0267 17.1844C25.0881 17.3201 25.1801 17.355 25.6324 17.4054C26.2803 17.4791 26.7173 17.6613 26.8477 17.9172C26.9013 18.018 26.9013 18.0645 26.863 18.1925C26.8017 18.4057 26.4873 18.712 26.1461 18.8904L25.874 19.0338L25.7513 18.8128C25.0229 17.4946 23.6428 16.5602 22.1171 16.3547C21.7108 16.3004 20.8597 16.3314 20.4802 16.4167C19.2995 16.6765 18.2644 17.3434 17.5591 18.3011L17.306 18.6422L17.1872 18.5608C16.7425 18.2468 16.4703 17.9133 16.3783 17.5566C16.1445 16.6687 16.7425 15.777 18.0919 15.0054L18.3104 14.8813L18.6669 15.017C19.5257 15.3389 20.4457 15.5017 21.6494 15.5327C24.1834 15.5986 26.1615 14.9977 26.6368 14.0128C26.7595 13.7531 26.7633 13.3498 26.6445 13.1172C26.4835 12.8109 26.1308 12.5783 25.6056 12.4348C25.3641 12.3689 25.1954 12.3534 24.6779 12.3495C24.0147 12.3495 23.7042 12.3844 23.018 12.5473C22.5656 12.6519 22.4276 12.7372 22.397 12.9272C22.3701 13.0784 22.4928 13.2839 22.6308 13.3188C22.6921 13.3343 22.8646 13.3111 23.064 13.2607C24.3636 12.9272 25.5213 12.966 25.9353 13.3615C26.0465 13.4662 26.0618 13.5049 26.0388 13.5941C25.9161 14.0904 24.9347 14.5401 23.501 14.7573C22.8531 14.8542 21.1549 14.8542 20.5377 14.7573C19.9665 14.6681 19.265 14.5014 19.2918 14.4587C19.3148 14.4238 20.438 14.04 20.8789 13.9198C21.0322 13.8771 21.2009 13.8151 21.2507 13.7802C21.3696 13.7027 21.4041 13.4972 21.3274 13.3421C21.2622 13.2103 21.2009 13.1792 21.0169 13.1792C20.7715 13.1792 19.426 13.6135 18.7168 13.9198L18.3411 14.0826L18.1648 13.9896C18.0689 13.9392 17.8734 13.7841 17.7316 13.6445C17.5207 13.4313 17.4671 13.3537 17.4134 13.1599C17.2869 12.7295 17.4019 12.2758 17.7392 11.8881C17.9884 11.6012 18.0152 11.4422 17.8427 11.2484C17.7852 11.1863 17.7201 11.1631 17.6051 11.1631C17.4594 11.1631 17.4249 11.1825 17.2754 11.3453ZM22.4966 17.1456C23.2748 17.3511 23.915 17.7195 24.4632 18.2739C24.7584 18.5725 25.1763 19.1385 25.1763 19.2432C25.1763 19.2897 24.8006 19.3983 24.2945 19.4952C23.0525 19.7356 21.2392 19.755 19.9205 19.5379C19.1538 19.4099 17.9692 19.0571 17.9692 18.9563C17.9692 18.8865 18.3258 18.4484 18.5941 18.1925C19.2075 17.6032 19.9167 17.2426 20.7869 17.072C21.2086 16.9905 22.0404 17.0254 22.4966 17.1456Z" fill="white"/>
<path d="M15.1521 14.0633C14.853 14.168 14.7725 14.4472 14.9834 14.6604C15.0869 14.769 15.1137 14.7767 15.2671 14.7573C15.5431 14.7186 15.6696 14.5906 15.6696 14.3619C15.6696 14.1525 15.3782 13.9858 15.1521 14.0633Z" fill="white"/>
<path d="M28.002 15.1218C27.9598 15.1451 27.9062 15.2265 27.8755 15.2963C27.8257 15.4165 27.8257 15.4475 27.8908 15.5948C27.9713 15.7732 28.0288 15.8314 28.1592 15.8663C28.3547 15.9128 28.5885 15.7306 28.5885 15.5251C28.5885 15.4243 28.4429 15.1645 28.3624 15.118C28.2665 15.0675 28.0902 15.0714 28.002 15.1218Z" fill="white"/>
<path d="M14.366 18.4523C14.1897 18.4949 14.0977 18.619 14.0977 18.809C14.0977 18.9214 14.1245 18.9873 14.1973 19.061C14.2855 19.1502 14.3162 19.1579 14.4887 19.1385C14.7494 19.1075 14.8644 18.9989 14.8644 18.7818C14.8644 18.5182 14.6573 18.3825 14.366 18.4523Z" fill="white"/>
<path d="M28.0324 19.2857C27.7947 19.5222 28.0247 19.9255 28.3965 19.9255C28.6342 19.9255 28.7876 19.6153 28.6649 19.3788C28.5575 19.1811 28.1857 19.1268 28.0324 19.2857Z" fill="white"/>
<path d="M15.067 20.4454C14.5609 20.5694 14.0434 20.961 13.8211 21.3836C13.7252 21.5659 11.2794 28.8202 11.1031 29.4444C10.9919 29.8399 10.9651 30.4874 11.0456 30.8983C11.1989 31.6932 11.7165 32.4027 12.3758 32.7206C13.039 33.0386 13.7252 33.0192 14.4114 32.6547C14.5533 32.5811 15.0861 32.1817 15.5998 31.7668C16.1135 31.352 16.5429 31.0147 16.562 31.0147C16.5774 31.0147 16.5889 31.6854 16.5889 32.5074V34.0001H16.9339H17.2789V32.1003C17.2789 30.0105 17.2789 30.026 17.0527 29.929C16.9875 29.9019 16.8955 29.8903 16.8457 29.9058C16.7959 29.9174 16.2055 30.371 15.5308 30.9177C14.2428 31.9607 13.9667 32.1429 13.5451 32.2205C13.0659 32.3096 12.5982 32.1352 12.2263 31.7358C11.7586 31.2318 11.5823 30.5339 11.7356 29.8127C11.8161 29.4366 14.3501 21.876 14.4613 21.6861C14.6529 21.3604 15.0286 21.1394 15.4695 21.1006C16.0713 21.0502 16.7959 21.4496 17.0106 21.9497C17.1677 22.3219 17.1486 22.4421 16.5505 24.7336C16.2553 25.8735 16.0062 26.8273 15.9985 26.8505C15.9793 26.897 16.6195 27.0832 16.6579 27.0444C16.7 26.9979 17.7389 22.9462 17.7734 22.6864C17.8539 22.0428 17.6852 21.531 17.2521 21.0928C16.6885 20.5307 15.7992 20.267 15.067 20.4454Z" fill="white"/>
<path d="M26.8325 20.4684C26.4184 20.5808 26.0389 20.7941 25.7476 21.0888C25.3144 21.523 25.1457 22.0193 25.2185 22.659C25.2454 22.8994 26.3034 27.048 26.3494 27.0946C26.3686 27.114 26.9091 26.986 26.9743 26.9472C26.9973 26.9317 26.8056 26.1253 26.4606 24.7915C25.8396 22.4186 25.8204 22.2985 25.9967 21.9224C26.2229 21.43 26.9321 21.05 27.5225 21.1004C27.9633 21.1392 28.339 21.3602 28.5307 21.6897C28.6572 21.9069 31.1835 29.4752 31.2563 29.8435C31.4058 30.6345 31.241 31.3324 30.7963 31.7705C30.3286 32.2319 29.5849 32.3831 29.0444 32.1311C28.9217 32.0729 28.2854 31.5883 27.4727 30.9291C26.7251 30.3204 26.0734 29.8009 26.0274 29.7776C25.8894 29.7039 25.7514 29.7272 25.6326 29.8474L25.5214 29.9598V31.8829V33.806H25.8664H26.2114V32.3327C26.2114 31.5224 26.2229 30.8594 26.2421 30.8594C26.2574 30.8594 26.775 31.2665 27.3883 31.7666C28.1205 32.356 28.5882 32.7049 28.73 32.7708C29.5696 33.1469 30.6391 32.9337 31.31 32.2513C31.8927 31.6658 32.1189 30.7508 31.9425 29.7233C31.8774 29.3395 29.3396 21.7014 29.1747 21.3873C28.9409 20.9453 28.3927 20.5421 27.8675 20.4335C27.5685 20.3715 27.1506 20.387 26.8325 20.4684Z" fill="white"/>
<path d="M18.1222 24.4269L17.873 24.6635L18.1452 24.9271C18.7969 25.5552 19.7285 26.0282 20.6293 26.1872C21.074 26.2647 21.8791 26.2609 22.3391 26.1833C23.2438 26.0244 24.0527 25.6211 24.7925 24.962L25.1107 24.679L24.8539 24.4347L24.5932 24.1904L24.3785 24.3882C23.8533 24.8728 23.217 25.2295 22.5461 25.4195C22.1934 25.5203 22.1167 25.5281 21.4766 25.5242C20.7098 25.5242 20.4952 25.4815 19.8626 25.2218C19.4716 25.0589 18.8659 24.6596 18.6014 24.3882C18.4979 24.2796 18.4021 24.1904 18.3906 24.1904C18.3791 24.1943 18.2602 24.299 18.1222 24.4269Z" fill="white"/>
</g>
<defs>
<clipPath id="clip0_2802_13746">
<rect width="21" height="24" fill="white" transform="translate(11 10)"/>
</clipPath>
</defs>
</svg>
