<svg width="42" height="45" viewBox="0 0 42 45" fill="none" xmlns="http://www.w3.org/2000/svg">
<rect y="2" width="42" height="42" rx="21" fill="#FFA470"/>
<path d="M14.471 10.0469C13.7131 10.2614 13.1232 10.9991 13.127 11.7329C13.127 11.8647 13.1494 11.9964 13.1755 12.0303C13.2987 12.1921 13.5712 12.2109 13.7056 12.0679C13.743 12.0227 13.7803 11.891 13.799 11.748C13.8363 11.4431 13.9446 11.2136 14.1387 11.0179C14.6726 10.4759 15.5836 10.6076 15.942 11.2738C16.0278 11.4356 16.054 11.541 16.0689 11.763C16.095 12.2222 15.9793 12.384 15.3707 12.7416C15.0235 12.9448 14.7771 13.1668 14.6913 13.3626C14.6353 13.4867 14.6203 13.6109 14.6203 14.0814C14.6203 14.6309 14.6241 14.6497 14.7099 14.7325C14.7995 14.819 14.9489 14.8416 15.0982 14.7927C15.2401 14.7475 15.2923 14.5631 15.2923 14.0852C15.2923 13.6674 15.2961 13.6561 15.3969 13.562C15.4529 13.5093 15.6582 13.3663 15.8524 13.2459C16.0465 13.1255 16.278 12.9523 16.3676 12.862C16.6737 12.5534 16.8006 12.1168 16.7409 11.5673C16.6662 10.8636 16.0726 10.1974 15.367 10.0356C15.143 9.9829 14.6801 9.99042 14.471 10.0469Z" fill="white"/>
<path d="M20.6126 11.9021C19.4589 12.1091 18.3128 12.8468 17.637 13.8103C17.3869 14.1716 17.1181 14.7173 16.9799 15.1501C16.6253 16.2754 16.7261 17.6227 17.2413 18.669C17.525 19.241 18.0888 19.9411 18.5442 20.2948L18.7272 20.4341L18.4845 20.562C18.2082 20.7088 17.9133 20.9873 17.7789 21.2207C17.5885 21.5556 15.3596 26.6364 15.3895 26.6665C15.4567 26.7305 15.9458 26.9224 15.9719 26.8998C15.9869 26.8848 16.5282 25.6805 17.1741 24.2277C17.8424 22.7298 18.4024 21.518 18.4658 21.4352C18.6376 21.2169 18.9923 21.0513 19.3395 21.0287C19.8397 20.9986 20.3848 21.2018 20.732 21.5519C21.0419 21.8642 21.18 22.2519 21.1128 22.6169C21.0718 22.8465 17.8125 31.2016 17.6744 31.4349C17.3197 32.0295 16.797 32.4021 16.181 32.5037C15.5612 32.6054 14.7922 32.2365 14.5271 31.7096C14.2732 31.2053 14.0156 29.9031 13.8401 28.2472C13.6497 26.4595 13.6273 25.5412 13.7543 25.0783C14.0007 24.1788 14.598 23.5051 15.3895 23.2229C15.6397 23.1363 15.7629 23.1175 16.1997 23.1024L16.7111 23.0836V22.7449V22.4062L16.1437 22.4212C15.621 22.4363 15.5426 22.4476 15.2178 22.5605C14.3479 22.8578 13.7617 23.3847 13.3473 24.239C13.0711 24.8148 12.9964 25.1649 13.0001 25.895C13.0151 27.5509 13.366 30.3397 13.7095 31.4838C13.9596 32.3156 14.43 32.8199 15.214 33.0833L15.4604 33.1699L15.4716 34.4533L15.4791 35.7366H15.8151H16.1511V34.457V33.1774H16.2818C16.6327 33.1774 17.2898 32.865 17.6856 32.5037L17.8984 32.3156L17.9208 32.4736C18.0514 33.3242 18.6786 34.0092 19.4515 34.1522C19.6008 34.1785 20.7283 34.1936 22.8414 34.1936H26.0073V35.1156V36.0377H26.3433H26.6793V35.1156V34.1973L26.8212 34.1748C27.3551 34.092 27.5978 34.0092 27.9748 33.7721C28.3108 33.5613 28.5871 33.2376 28.7887 32.8274C29.0949 32.2027 29.1285 31.7661 28.9754 30.5128C28.7775 28.8983 28.3743 26.3278 28.21 25.6127C27.7658 23.7046 26.8287 22.5642 25.4772 22.2857C25.2457 22.2368 24.9246 22.2255 23.842 22.2255H22.4979V22.5642V22.903H23.7971C25.2606 22.903 25.4324 22.9255 25.8953 23.1514C26.1119 23.2605 26.25 23.3659 26.4927 23.6143C27.1124 24.2465 27.4186 24.9917 27.7023 26.5724C27.9898 28.1719 28.3967 31.115 28.3967 31.608C28.3967 32.4812 27.8778 33.2113 27.1012 33.4258C26.8623 33.4936 26.6457 33.4973 23.1886 33.4973H19.5299L19.3357 33.407C19.0931 33.2979 18.828 33.0156 18.701 32.7333C18.6226 32.564 18.6002 32.4473 18.5853 32.1424C18.5592 31.5516 18.7197 31.1075 19.0707 30.7876C19.3955 30.494 19.2611 30.5053 22.3187 30.5053C25.2942 30.5053 25.2569 30.5091 25.339 30.2908C25.3689 30.2118 25.3428 29.9408 25.2308 29.1053C25.1524 28.5069 25.0777 28.0138 25.0665 28.0026C25.059 27.9913 24.9022 28.0026 24.7268 28.0251L24.402 28.0703L24.4206 28.187C24.4654 28.4354 24.626 29.6623 24.626 29.7413V29.8279H22.0424C19.6008 29.8316 19.444 29.8354 19.2499 29.9031C19.1379 29.9408 19.0408 29.9671 19.0333 29.9596C19.0259 29.9558 19.6344 28.3751 20.3848 26.4482C21.4264 23.7761 21.7587 22.8879 21.7848 22.6922C21.8408 22.3159 21.7811 21.9696 21.6131 21.6196L21.4712 21.3373L21.9192 21.2922C22.5203 21.232 22.987 21.1002 23.5246 20.8368C24.0697 20.5696 24.4692 20.276 24.8724 19.847C25.7348 18.9362 26.1641 17.8523 26.1679 16.5802C26.1679 15.5528 25.9289 14.7511 25.3614 13.9006C24.6782 12.8656 23.5246 12.1129 22.2963 11.8946C21.8856 11.8231 21.0232 11.8269 20.6126 11.9021ZM22.1881 12.5721C24.5289 13.0199 25.9961 15.3872 25.3502 17.6641C25.1636 18.3227 24.8425 18.8797 24.3684 19.3765C23.7113 20.0615 22.9683 20.4491 22.0499 20.5922C21.6019 20.6599 21.3406 20.6599 20.8814 20.5884C20.0339 20.4604 19.3208 20.1029 18.6824 19.4857C17.2712 18.1195 17.0359 15.9705 18.1149 14.3334C18.7197 13.4151 19.6979 12.764 20.7544 12.5721C21.1278 12.5043 21.8296 12.5043 22.1881 12.5721Z" fill="white"/>
<path d="M14.7023 15.3497C14.6351 15.4212 14.6201 15.4814 14.6201 15.6809C14.6201 15.9857 14.7023 16.0911 14.9412 16.0911C15.1689 16.0911 15.2735 15.9631 15.2735 15.6771C15.2735 15.4965 15.2585 15.44 15.1839 15.361C15.0607 15.2293 14.818 15.2255 14.7023 15.3497Z" fill="white"/>
</svg>
