<svg width="42" height="45" viewBox="0 0 42 45" fill="none" xmlns="http://www.w3.org/2000/svg">
<rect y="2" width="42" height="42" rx="21" fill="#8BBC9F"/>
<g clip-path="url(#clip0_2802_13589)">
<path d="M14.4175 13.0452C13.9827 13.1396 13.5518 13.3776 13.221 13.7024C12.7785 14.1367 12.5708 14.5522 12.4938 15.1451C12.3476 16.3046 13.0478 17.3886 14.1905 17.7662C14.4636 17.8531 14.579 17.872 14.9368 17.872C15.4293 17.8758 15.7294 17.8078 16.1103 17.6114C17.0028 17.1506 17.4953 16.3084 17.4453 15.3113C17.4145 14.6617 17.1875 14.1632 16.7258 13.7062C16.2526 13.2454 15.7371 13.0263 15.0715 13.0037C14.8099 12.9961 14.579 13.0075 14.4175 13.0452ZM15.4216 13.7364C16.0487 13.8988 16.5373 14.3822 16.7066 15.0092C16.9105 15.7796 16.5335 16.6068 15.8063 16.9882C14.5983 17.619 13.1594 16.7541 13.1786 15.4057C13.1825 14.9261 13.371 14.5068 13.7326 14.1707C14.2059 13.7364 14.806 13.5815 15.4216 13.7364Z" fill="white"/>
<path d="M24.1817 16.5502C23.9163 16.6484 23.6931 16.807 23.4238 17.0789C22.9891 17.5208 20.2229 20.6254 20.2344 20.6594C20.2421 20.6745 20.3537 20.7802 20.4883 20.8935L20.7307 21.1013L20.8961 20.9238C20.9846 20.8293 21.6964 20.0362 22.4735 19.1638C23.2507 18.2913 23.9509 17.5208 24.0278 17.4528C24.3279 17.1809 24.6049 17.1205 24.9012 17.2527C25.1897 17.3811 34.0193 22.4722 34.1231 22.5704C34.1808 22.6271 34.2501 22.7291 34.2732 22.8008C34.3732 23.103 34.2309 23.6544 33.9423 24.0812C33.7769 24.3267 28.5292 30.1468 28.3137 30.328C28.2252 30.3998 26.5901 31.3478 24.6742 32.4393C22.7582 33.5308 21.1885 34.4335 21.1885 34.4448C21.1885 34.5128 21.5156 35.0075 21.5579 35C21.5848 34.9924 23.1853 34.086 25.1166 32.9869C28.2175 31.2194 28.66 30.955 28.8908 30.7397C29.0332 30.6038 30.3336 29.1799 31.7801 27.5747C34.5348 24.5193 34.6695 24.3531 34.8734 23.7866C35.0196 23.3862 35.0426 22.8386 34.9234 22.5327C34.7464 22.0757 34.8887 22.1663 29.8834 19.2959C27.3788 17.857 25.2474 16.6446 25.1512 16.6031C24.932 16.5049 24.3895 16.4747 24.1817 16.5502Z" fill="white"/>
<path d="M11.5661 17.5738C10.4388 17.808 9.60783 18.7144 9.45779 19.8814C9.38853 20.4366 8.97687 25.4862 8.99996 25.5127C9.01535 25.524 9.16924 25.5429 9.34621 25.5542L9.66939 25.5769L9.90792 22.7178C10.1657 19.6624 10.1772 19.5793 10.4196 19.1601C10.5466 18.9372 10.9005 18.5973 11.1506 18.4538C11.3622 18.3292 11.8585 18.2007 12.1124 18.2007C13.0819 18.2007 13.8899 18.9297 14.0938 19.9947C14.2746 20.9503 14.4516 21.4337 14.8017 21.9398C15.3672 22.7594 16.3214 23.3032 17.4755 23.4694C17.8718 23.5261 17.9795 23.5752 18.1257 23.7678C18.2412 23.9151 18.2373 24.2588 18.118 24.4212C17.9372 24.6704 17.6333 24.7158 16.9485 24.5836C15.3634 24.2814 14.0322 23.3448 13.3782 22.0682C13.2897 21.8945 13.2012 21.751 13.1858 21.751C13.155 21.751 12.601 21.97 12.5779 21.9927C12.5395 22.0342 13.0011 22.8274 13.2512 23.1559C14.2361 24.4401 15.9751 25.3163 17.5333 25.3201C17.9834 25.3201 18.0257 25.3125 18.2142 25.2181C18.472 25.0821 18.6605 24.8971 18.7913 24.6478C18.8837 24.474 18.8952 24.4098 18.8952 24.0926C18.8952 23.7791 18.8837 23.7111 18.7952 23.5449L18.6951 23.3523L18.8644 23.2617C19.1645 23.1068 19.3684 22.8991 19.5223 22.5894C19.6647 22.3137 19.6685 22.2873 19.6685 21.902C19.6685 21.5281 19.6608 21.4866 19.5454 21.2562C19.3915 20.954 19.0837 20.6557 18.7759 20.5122C18.5759 20.4215 18.5105 20.4102 18.1296 20.4102C17.741 20.4102 17.6871 20.4177 17.4755 20.5197C17.1716 20.667 16.8446 20.9918 16.7253 21.2675C16.6638 21.3997 16.5984 21.4904 16.5522 21.5017C16.5099 21.513 16.2444 21.5508 15.9636 21.5848C15.3711 21.6603 15.4403 21.6905 15.1903 21.2222C15.0133 20.8861 14.9017 20.5424 14.8209 20.0514C14.6516 19.0467 14.2323 18.3707 13.4859 17.8986C12.9896 17.5813 12.1855 17.4492 11.5661 17.5738ZM18.4489 21.1316C19.2068 21.4413 19.153 22.4912 18.3643 22.714C18.1488 22.7745 18.1257 22.7745 17.9218 22.714C17.5871 22.6121 17.4294 22.6045 17.3217 22.6725C17.2293 22.7329 17.2062 22.7292 16.8677 22.6196C16.6753 22.5554 16.4291 22.4497 16.3214 22.3855L16.129 22.2646L16.3983 22.2155C16.5483 22.1891 16.733 22.1777 16.8138 22.1891C17.0947 22.2306 17.2332 22.1173 17.2832 21.8076C17.3794 21.2524 17.9449 20.9238 18.4489 21.1316Z" fill="white"/>
<path d="M25.3737 19.598C24.8235 19.6961 24.2734 19.9907 23.9233 20.3798C23.6886 20.6366 23.4424 21.086 23.3539 21.4146C23.2769 21.7054 23.2692 22.2908 23.3385 22.5816C23.4654 23.0991 23.8309 23.6618 24.2388 23.964C24.7158 24.319 25.1775 24.4701 25.7854 24.4701C26.3932 24.4701 26.8549 24.319 27.332 23.964C27.7398 23.6618 28.1053 23.0991 28.2322 22.5816C28.3015 22.287 28.2938 21.7092 28.213 21.4108C27.9283 20.3722 26.9973 19.6282 25.9123 19.5791C25.7161 19.5715 25.4737 19.5791 25.3737 19.598ZM26.3625 20.3533C26.7664 20.4893 27.0896 20.7423 27.3166 21.0973C28.0591 22.2682 27.1935 23.7902 25.7854 23.7902C24.3619 23.7902 23.5001 22.2417 24.2695 21.0634C24.5119 20.6932 24.9928 20.3722 25.4391 20.2816C25.6969 20.2325 26.0893 20.2589 26.3625 20.3533Z" fill="white"/>
<path d="M21.8188 24.0924C20.8916 24.1868 20.026 24.5531 19.3027 25.1574C18.8371 25.5502 18.6255 25.8335 18.6679 26.0186C18.7025 26.1696 18.7948 26.2376 19.0757 26.3169C20.0991 26.6077 21.3302 27.3744 21.8881 28.0694L22.0073 28.2167L21.6918 28.515C21.0532 29.1155 20.2837 29.6141 19.2026 30.1353C18.5448 30.4488 18.4332 30.5356 18.2908 30.8529C18.237 30.97 18.21 31.1097 18.21 31.3061C18.2062 31.6838 18.3447 31.9746 18.6294 32.1861C19.0795 32.5185 19.6335 32.56 20.3184 32.307C22.0727 31.6611 24.1464 30.2524 24.989 29.1344C25.2352 28.8059 25.5391 28.2355 25.6469 27.8994C26.0893 26.4793 25.4814 25.1839 24.0348 24.4701C23.4039 24.1566 22.5767 24.0168 21.8188 24.0924ZM22.896 24.8175C23.6232 24.9346 24.3888 25.3992 24.762 25.9468C25.3198 26.7664 25.1544 27.8163 24.3118 28.8587C23.5001 29.8596 21.4572 31.1966 19.9952 31.6838C19.7066 31.782 19.5951 31.8009 19.445 31.7858C19.0603 31.7404 18.8371 31.4912 18.9179 31.1966C18.9372 31.1173 18.9795 31.0342 19.0064 31.0115C19.0334 30.9889 19.3334 30.834 19.6759 30.6678C20.3376 30.3468 20.7916 30.0824 21.2917 29.7312C22.065 29.1873 22.7652 28.4924 22.7652 28.2695C22.7652 27.9296 21.9958 27.0761 21.2456 26.5889C21.0147 26.434 20.5684 26.1885 20.2568 26.0412C19.9452 25.8939 19.6912 25.7617 19.6874 25.7504C19.6836 25.6937 20.3222 25.2707 20.63 25.1272C21.3725 24.7798 22.0843 24.6816 22.896 24.8175Z" fill="white"/>
<path d="M12.2314 26.0903C11.2734 26.6493 10.477 27.1139 10.4655 27.129C10.4501 27.1441 10.7117 27.6275 10.7848 27.7144C10.8041 27.737 14.3089 25.7013 14.3282 25.6522C14.3474 25.6069 14.0435 25.0744 13.9973 25.0781C13.9858 25.0781 13.1894 25.5351 12.2314 26.0903Z" fill="white"/>
</g>
<defs>
<clipPath id="clip0_2802_13589">
<rect width="26" height="22" fill="white" transform="translate(9 13)"/>
</clipPath>
</defs>
</svg>
