<svg width="42" height="42" viewBox="0 0 42 42" fill="none" xmlns="http://www.w3.org/2000/svg">
<rect width="42" height="42" rx="21" fill="#9699DC"/>
<g clip-path="url(#clip0_2884_13333)">
<path d="M15.8149 10.0249C15.1159 10.1291 14.4615 10.4953 14.0637 11.0017C13.6473 11.5367 13.4725 12.0718 13.5023 12.7505C13.532 13.4507 13.7811 14.0073 14.2905 14.4921C15.5807 15.7238 17.6739 15.4329 18.596 13.896C18.7894 13.5728 18.8897 13.1993 18.9083 12.7505C18.9306 12.2405 18.8674 11.9138 18.6629 11.5116C18.3804 10.9406 17.9454 10.5169 17.3802 10.2548C16.9266 10.0465 16.2945 9.94953 15.8149 10.0249ZM16.763 10.7288C17.5959 10.9514 18.1907 11.6732 18.2391 12.5171C18.2986 13.5046 17.6107 14.3592 16.5957 14.5639C16.4544 14.5926 16.2759 14.6178 16.2053 14.6178C16.1346 14.6178 15.9599 14.5926 15.8149 14.5639C14.7999 14.3592 14.112 13.5046 14.1715 12.5171C14.2422 11.2494 15.4951 10.3876 16.763 10.7288Z" fill="white"/>
<path d="M27.6573 13.2209C27.5234 13.2425 27.3003 13.2963 27.1628 13.343C26.4266 13.5908 25.7982 14.2012 25.5157 14.941C25.3818 15.2965 25.3484 15.9752 25.4413 16.3881C25.8131 17.9969 27.6907 18.8551 29.2375 18.119C29.8175 17.8461 30.1781 17.4977 30.4681 16.934C31.0073 15.889 30.7544 14.6429 29.8435 13.8457C29.587 13.6231 29.0739 13.3574 28.7318 13.2748C28.4455 13.2066 27.9436 13.1814 27.6573 13.2209ZM28.6835 13.9535C29.5498 14.2156 30.1298 15.0487 30.0629 15.9393C30.0183 16.5928 29.6055 17.1961 28.9995 17.5049C28.5273 17.7419 28.0737 17.7958 27.568 17.6701C27.1925 17.5767 26.9099 17.4223 26.6348 17.153C26.2481 16.7724 26.0585 16.3307 26.0585 15.8064C26.0585 15.2749 26.2184 14.8728 26.5716 14.5029C27.1516 13.8996 27.8804 13.7093 28.6835 13.9535Z" fill="white"/>
<path d="M12.8107 15.0706C12.4277 15.1604 12.0187 15.3938 11.6841 15.7134C11.5205 15.8714 11.3309 16.0904 11.2677 16.1981C11.0558 16.5608 10.5538 18.1013 10.1969 19.4659C9.98124 20.3098 9.94406 20.7191 10.0705 20.9992C10.1486 21.1752 10.3754 21.4194 10.5873 21.5522C10.6802 21.6097 10.6802 21.6097 10.6319 21.8754C10.6022 22.0227 10.5687 22.2776 10.5538 22.4464C10.5166 22.8593 10.617 30.2208 10.6654 30.5799C10.71 30.939 10.8959 31.3196 11.1153 31.5135C11.2008 31.5853 11.3792 31.6967 11.5168 31.7613C11.751 31.869 11.7845 31.8726 12.227 31.8726C12.6768 31.8726 12.7029 31.869 12.9371 31.7577C13.1825 31.6392 13.4762 31.3914 13.5952 31.2011C13.6324 31.1365 13.6807 31.1041 13.7142 31.1149C13.7439 31.1257 13.8703 31.1688 13.993 31.2119C14.1827 31.2765 14.2719 31.2837 14.6065 31.2729C15.0378 31.2514 15.2089 31.2011 15.5286 31C15.9376 30.7415 16.1644 30.3249 16.1941 29.7899C16.2127 29.4344 16.3206 29.8653 15.0378 25.0211L14.6883 23.6996L14.8073 23.7283C14.8705 23.7427 15.049 23.7571 15.2014 23.7571C15.4394 23.7571 15.5063 23.7427 15.655 23.6565C15.919 23.5093 16.09 23.3226 16.2388 23.0209C16.354 22.7839 16.3726 22.7193 16.3689 22.4823C16.3689 22.1627 16.2759 21.9257 16.064 21.7174C15.9896 21.642 15.7108 21.423 15.4505 21.2362C15.0527 20.949 14.9746 20.8771 14.9932 20.8161C15.0044 20.773 15.0415 20.6258 15.075 20.4821L15.1382 20.2236L15.3204 20.3816C15.5658 20.5935 15.8707 20.7838 16.1235 20.8843C16.3057 20.9561 17.3951 21.2973 17.4806 21.3116C17.5103 21.3152 17.6925 20.8197 17.6925 20.7371C17.6925 20.712 17.3802 20.597 16.9972 20.4785C16.6031 20.3565 16.2202 20.2092 16.1198 20.1482C15.9116 20.0225 15.6141 19.7604 15.4542 19.5664L15.3464 19.4336L15.5212 18.7944C15.7368 18.0044 15.7926 17.7387 15.7963 17.5088V17.3293L16.5883 18.0906L17.3765 18.8518L17.845 19.0888C18.3729 19.351 18.3246 19.3582 18.5105 19.0027C18.6518 18.7298 18.6778 18.7657 18.1387 18.4963C17.7892 18.324 17.7706 18.306 16.5845 17.1426C15.9227 16.4962 15.2683 15.8498 15.1308 15.7098C14.9263 15.5015 14.8147 15.4225 14.5284 15.286C14.3351 15.1963 14.0786 15.0957 13.9559 15.067C13.6807 14.9988 13.1007 15.0024 12.8107 15.0706ZM13.9187 15.7457C14.4281 15.9037 14.7776 16.1874 14.9895 16.6219C15.0899 16.8266 15.1047 16.9056 15.1196 17.2359C15.1345 17.6022 15.1271 17.6453 14.9412 18.3347C14.8333 18.7298 14.666 19.3582 14.5693 19.7352C14.4504 20.1841 14.3723 20.4139 14.3425 20.4067C14.3016 20.396 13.5655 19.8645 13.5655 19.8429C13.5655 19.8394 13.6175 19.5952 13.677 19.3043C13.7402 19.0134 13.7885 18.7513 13.7885 18.7262C13.7885 18.6831 13.6101 18.6364 13.2755 18.5825L13.1379 18.561L12.9892 19.2828C12.8776 19.8322 12.8516 20.0261 12.8813 20.1015C12.9074 20.1733 13.2457 20.4426 14.0971 21.0675C15.5398 22.1232 15.6067 22.1735 15.6699 22.3279C15.8075 22.6403 15.4319 23.1718 15.1159 23.1179C15.049 23.1071 14.086 22.6295 12.9706 22.055C10.7434 20.9059 10.6654 20.8556 10.6654 20.5755C10.6654 20.2631 11.0855 18.6903 11.4908 17.4981C11.7808 16.6326 11.8403 16.5105 12.082 16.2556C12.5913 15.7169 13.2346 15.5374 13.9187 15.7457ZM12.5467 22.5757C13.2197 22.9204 13.7885 23.2256 13.8109 23.2472C13.8406 23.2795 13.7625 24.2742 13.5208 26.8992L13.1899 30.5081L13.0784 30.7271C12.9111 31.0718 12.6248 31.2442 12.2344 31.2442C11.8217 31.2442 11.5689 31.1006 11.4164 30.781C11.3012 30.5404 11.3123 30.8671 11.2454 26.2348C11.2194 24.3568 11.2119 22.6726 11.2268 22.4859C11.2565 22.1663 11.29 21.9436 11.3123 21.9436C11.3197 21.9436 11.8737 22.2273 12.5467 22.5757ZM14.956 27.3588C15.2758 28.5689 15.536 29.6283 15.536 29.7145C15.536 30.1059 15.2646 30.4721 14.9003 30.5763C14.6363 30.6517 14.3277 30.6481 14.1343 30.5655C13.8406 30.4362 13.8443 30.6301 14.1083 27.7969C14.2384 26.4036 14.3425 25.233 14.3463 25.197C14.3463 25.1575 14.3537 25.136 14.3611 25.1432C14.3686 25.1504 14.6363 26.1486 14.956 27.3588Z" fill="white"/>
<path d="M22.6006 16.0222C21.9611 16.1802 21.2101 16.6398 20.5557 17.2754C19.7191 18.0834 18.8826 19.2935 18.3062 20.536C17.7597 21.703 17.6258 22.45 17.6742 24.0802C17.756 27.0248 17.9159 30.6624 17.9642 30.8348C18.1427 31.4417 18.5851 31.8116 19.2246 31.8906C19.5704 31.9301 19.905 31.887 20.1727 31.7613C20.3958 31.6571 20.7044 31.4022 20.8159 31.2298L20.8903 31.1077L21.106 31.1903C21.9202 31.5027 22.872 31.1616 23.2364 30.429C23.3442 30.21 23.3591 30.1454 23.3703 29.8078L23.3851 29.4308L22.5858 26.4323L21.7864 23.4339L21.9425 23.1681C22.24 22.6618 23.0803 21.4589 23.0988 21.5127C23.1063 21.5415 23.1435 21.6635 23.1769 21.782C23.2736 22.116 23.4744 22.4966 23.6305 22.6259C23.9131 22.8665 24.943 23.2651 25.8651 23.4913C26.1365 23.5596 26.2034 23.5883 26.1848 23.6314C26.0733 23.8827 25.9841 24.1916 25.9655 24.3855C25.9543 24.5148 25.8762 26.1271 25.7982 27.9692C25.668 30.9318 25.6569 31.334 25.7052 31.4237C25.7647 31.535 25.8279 31.5674 25.9878 31.5674C26.1254 31.5674 26.2295 31.5171 26.2815 31.4237C26.3001 31.3878 26.3447 30.7953 26.3745 30.1059C26.4042 29.42 26.4377 28.691 26.4525 28.4863L26.4749 28.1201H29.0143H31.5537L31.5761 28.3427C31.5872 28.4684 31.6058 28.8203 31.617 29.1255L31.6393 29.6857L31.5166 29.7432C31.1596 29.9048 30.9663 30.2136 30.9663 30.6122C30.9663 31.2011 31.379 31.5997 31.9925 31.6033C32.4163 31.6033 32.6989 31.4309 32.9108 31.0503C33.0261 30.842 33.0261 30.3895 32.9108 30.1849C32.8179 30.0161 32.5948 29.8042 32.4275 29.7216C32.3606 29.6893 32.3048 29.6426 32.3048 29.6175C32.3048 29.5959 32.2527 28.3858 32.1933 26.9351C32.0743 24.0731 32.0743 24.0731 31.84 23.6134C31.4868 22.9132 30.7246 22.3925 29.9401 22.3171L29.7059 22.292L29.6092 22.1052C29.5051 21.8934 29.2671 21.6635 29.044 21.5522C28.9622 21.5127 28.2967 21.2506 27.5605 20.9741C26.8281 20.694 26.2072 20.439 26.1848 20.4103C26.1588 20.3852 26.1291 20.2846 26.1142 20.1913C26.0436 19.7137 25.7164 18.1121 25.6309 17.832C25.5788 17.6525 25.4598 17.358 25.3669 17.1713C25.062 16.5716 24.5266 16.1443 23.8945 16.0006C23.5599 15.9252 22.9464 15.936 22.6006 16.0222ZM23.954 16.7044C24.2961 16.8337 24.5749 17.1066 24.7757 17.5052C24.9728 17.9074 25.0694 18.2737 25.3334 19.6813C25.4747 20.4175 25.5639 20.8053 25.6085 20.8628C25.6569 20.931 26.0473 21.0962 27.2222 21.5486C28.8544 22.177 28.9511 22.2237 29.0366 22.4751C29.1184 22.7193 29.0292 23.0425 28.8358 23.1789C28.7429 23.2471 28.6797 23.2543 28.2781 23.2507C27.7725 23.2507 27.3412 23.1789 26.3931 22.9491C25.5825 22.748 24.8129 22.5002 24.4113 22.3063C23.9875 22.1016 23.9763 22.0801 23.7198 21.2075C23.5004 20.4749 23.4558 20.3995 23.2104 20.3995C23.0691 20.3995 23.0394 20.4175 22.9241 20.5504C22.7456 20.7622 21.7715 22.1699 21.4778 22.6475C20.9981 23.4195 20.9721 23.4806 20.9126 24.1233C20.8345 24.8954 20.6933 26.6334 20.5371 28.7628C20.3884 30.7271 20.3847 30.7522 20.117 31.0036C19.9273 31.1795 19.7303 31.255 19.4551 31.2514C18.9272 31.2478 18.6557 30.9892 18.5814 30.4254C18.5516 30.1956 18.4847 28.4037 18.3397 23.9725C18.2914 22.4931 18.4736 21.6564 19.1317 20.3816C20.1504 18.4101 21.5558 16.9774 22.7865 16.647C23.0877 16.568 23.6677 16.5967 23.954 16.7044ZM30.0702 23.003C30.68 23.1574 31.1559 23.5919 31.3418 24.17C31.4087 24.3747 31.4273 24.5973 31.4794 25.9404L31.5426 27.4737H29.0255H26.5046V27.3193C26.5046 26.8776 26.6236 24.5183 26.6533 24.3568C26.6719 24.249 26.7351 24.0659 26.7909 23.9474C26.8727 23.7678 26.9024 23.7355 26.9656 23.7535C27.6312 23.9079 28.6425 23.951 28.9808 23.8361C29.2485 23.7463 29.4679 23.5524 29.5943 23.2938C29.6538 23.1717 29.7021 23.0461 29.7021 23.0101C29.7021 22.9347 29.7988 22.9311 30.0702 23.003ZM22.1359 27.3803C22.5225 28.8454 22.7122 29.6283 22.7122 29.7503C22.7047 30.289 22.3143 30.6445 21.7306 30.6445C21.4517 30.6445 21.2993 30.5942 21.1729 30.4578C21.0874 30.368 21.0911 30.289 21.2807 27.8328C21.4964 25.0426 21.4964 25.0498 21.5298 25.1252C21.5447 25.1611 21.8198 26.1774 22.1359 27.3803ZM32.2193 30.4003C32.3383 30.5152 32.3494 30.5439 32.3308 30.6625C32.2825 30.9497 31.9553 31.0539 31.7434 30.8528C31.5128 30.6301 31.6653 30.2854 32.0036 30.2782C32.0557 30.2746 32.1412 30.3249 32.2193 30.4003Z" fill="white"/>
</g>
<defs>
<clipPath id="clip0_2884_13333">
<rect width="23" height="21.9048" fill="white" transform="translate(10 10)"/>
</clipPath>
</defs>
</svg>
