<svg width="20" height="20" viewBox="0 0 20 20" fill="none" xmlns="http://www.w3.org/2000/svg">
<rect width="20" height="20" rx="10" fill="#2CB7A4"/>
<path d="M14.0151 6.27098C14.2 6.09775 14.4447 6.0027 14.6981 6.00568C14.9514 6.00867 15.1938 6.10947 15.3746 6.28701C15.5554 6.46455 15.6605 6.70509 15.6681 6.95835C15.6756 7.21161 15.585 7.45798 15.4151 7.64598L10.1911 14.179C10.1013 14.2757 9.99283 14.3533 9.87231 14.4072C9.75178 14.4611 9.62163 14.4901 9.48963 14.4925C9.35763 14.495 9.2265 14.4707 9.10408 14.4213C8.98165 14.3719 8.87044 14.2983 8.77711 14.205L5.31511 10.737C5.21292 10.6487 5.13004 10.5403 5.07165 10.4185C5.01326 10.2968 4.98061 10.1643 4.97574 10.0293C4.97087 9.89436 4.99388 9.75985 5.04335 9.63419C5.09281 9.50854 5.16766 9.39444 5.26322 9.29902C5.35878 9.2036 5.47299 9.12892 5.59871 9.07963C5.72444 9.03035 5.85898 9.00753 5.99392 9.01259C6.12887 9.01765 6.26132 9.0505 6.383 9.10906C6.50468 9.16763 6.61297 9.25067 6.7011 9.35298L9.4431 12.093L13.9901 6.29898C13.9982 6.28884 14.0069 6.27916 14.0161 6.26998L14.0151 6.27098Z" fill="white"/>
</svg>
